<svg width="70" height="71" viewBox="0 0 70 71" fill="none" xmlns="http://www.w3.org/2000/svg">
<path d="M67.1622 0H2.83784C1.27059 0 0 1.3762 0 3.07371V53.6831C0 55.3809 1.27059 56.7568 2.83784 56.7568H25.477L23.0555 65.6749H20.1216C19.3766 65.6749 18.7725 66.329 18.7725 67.1359V69.5388C18.7725 70.3457 19.3766 71 20.1216 71H49.8786C50.6236 71 51.2277 70.3459 51.2277 69.5388V67.1359C51.2277 66.329 50.624 65.6749 49.8786 65.6749H46.9443L44.5228 56.7568H67.1622C68.7294 56.7568 70 55.3809 70 53.6831V3.07371C70 1.3762 68.7294 0 67.1622 0ZM64.3243 45.4864H5.67568V6.14742H64.3243V45.4864Z" fill="url(#paint0_linear)"/>
<mask id="path-2-outside-1" maskUnits="userSpaceOnUse" x="22" y="13" width="26" height="26" fill="black">
<rect fill="white" x="22" y="13" width="26" height="26"/>
<path d="M36.4503 14H33.5493C32.9699 14 32.49 14.4342 32.4329 15.0097L32.1355 16.7919C31.5767 16.9656 31.0338 17.1913 30.5151 17.4641L29.0224 16.3981C28.844 16.2502 28.5918 16.1598 28.3332 16.1598C28.0333 16.1598 27.7518 16.2767 27.5396 16.4889L25.4885 18.54C25.0789 18.9497 25.0471 19.5961 25.414 20.0442L26.4641 21.5151C26.1904 22.0346 25.9652 22.578 25.7919 23.1352L23.9835 23.4369C23.4346 23.4896 23 23.9695 23 24.5497V27.4503C23 28.0297 23.4342 28.5095 24.0097 28.5671L25.7919 28.8653C25.966 29.4249 26.1916 29.9678 26.4637 30.4849L25.3981 31.9776C25.0467 32.4039 25.0784 33.0503 25.4885 33.4596L27.54 35.5115C27.9354 35.9061 28.6124 35.939 29.043 35.5868L30.5159 34.5363C31.0327 34.8087 31.5756 35.034 32.1355 35.2081L32.4365 37.0161C32.4901 37.5658 32.9703 38 33.5497 38H36.4507C37.0293 38 37.5091 37.5662 37.5675 36.9911L37.8653 35.2081C38.4245 35.034 38.9674 34.8087 39.4845 34.5363L40.9776 35.6023C41.1557 35.7498 41.4079 35.8398 41.6664 35.8398C41.9663 35.8398 42.2478 35.7233 42.4596 35.5115L44.5107 33.4596C44.92 33.0515 44.9529 32.4055 44.5868 31.957L43.5363 30.4849C43.8091 29.9677 44.034 29.4248 44.2081 28.8653L46.0165 28.5635C46.5662 28.5095 47 28.0297 47 27.4503V24.5497C47 23.9695 46.5658 23.4901 45.9895 23.4342L44.2081 23.1364C44.034 22.5764 43.8087 22.0331 43.5363 21.516L44.6023 20.0236C44.9533 19.5957 44.9203 18.9489 44.5103 18.5404L42.4596 16.4897C42.0658 16.0955 41.3872 16.0607 40.9554 16.4148L39.4845 17.4645C38.9657 17.1913 38.4229 16.9656 37.8653 16.7923L37.5631 14.9835C37.5091 14.4342 37.0293 14 36.4503 14ZM30.4865 18.3278C30.5532 18.3278 30.6202 18.3112 30.6805 18.2771C31.2849 17.9384 31.9281 17.6715 32.594 17.4831C32.7415 17.4415 32.8517 17.3182 32.8771 17.1667L33.2185 15.114C33.2384 14.9228 33.3824 14.7931 33.5493 14.7931H36.4503C36.6172 14.7931 36.7608 14.9224 36.7771 15.0878L37.1233 17.1667C37.1482 17.3178 37.2589 17.4411 37.4064 17.4827C38.0707 17.6707 38.7139 17.9376 39.3187 18.2767C39.4524 18.352 39.6182 18.3429 39.7431 18.2533L41.4368 17.0433C41.6077 16.9057 41.7818 16.9343 41.8976 17.0497L43.9491 19.1012C44.0696 19.2213 44.0791 19.4105 43.9721 19.5417L42.7459 21.2562C42.6562 21.3811 42.6475 21.5464 42.7225 21.6809C43.0611 22.2829 43.3276 22.9261 43.5156 23.5932C43.5573 23.7411 43.6806 23.8513 43.8325 23.8767L45.8856 24.219C46.0767 24.2388 46.2064 24.382 46.2064 24.5489V27.4495C46.2064 27.6164 46.0771 27.7604 45.9118 27.7767L43.8329 28.1225C43.681 28.1478 43.558 28.2581 43.516 28.406C43.328 29.0731 43.0611 29.7163 42.7229 30.3175C42.6479 30.452 42.6567 30.6173 42.7463 30.7422L43.957 32.4368C44.0796 32.5883 44.0696 32.7771 43.9499 32.8968L41.8984 34.9491C41.7831 35.0645 41.5844 35.0744 41.459 34.9717L39.7435 33.7451C39.6185 33.6555 39.4527 33.6468 39.3191 33.7217C38.7167 34.06 38.0735 34.3269 37.4068 34.5157C37.2593 34.5569 37.1491 34.6807 37.1236 34.8322L36.7818 36.8848C36.7608 37.08 36.62 37.2068 36.4503 37.2068H33.5493C33.3792 37.2068 33.2388 37.0803 33.2221 36.9122L32.8771 34.8337C32.8521 34.6822 32.7415 34.5589 32.594 34.5173C31.9261 34.3281 31.2829 34.0616 30.6821 33.7233C30.5473 33.6483 30.3819 33.6571 30.2573 33.7467L28.562 34.9575C28.3914 35.0939 28.2165 35.0665 28.1011 34.9503L26.0497 32.8988C25.9299 32.7791 25.9208 32.5903 26.0279 32.4598L27.2537 30.7438C27.3433 30.6185 27.352 30.4531 27.2771 30.3191C26.9392 29.7178 26.6723 29.0746 26.4831 28.4072C26.4419 28.2596 26.3182 28.1494 26.1667 28.124L24.114 27.7818C23.9196 27.7611 23.7932 27.6204 23.7932 27.4502V24.5496C23.7932 24.3799 23.9193 24.2395 24.087 24.2233L26.1663 23.8775C26.3178 23.8525 26.4411 23.7418 26.4827 23.594C26.6703 22.9305 26.9372 22.2868 27.2767 21.6809C27.3517 21.5468 27.3429 21.3818 27.2533 21.2569L26.0433 19.5631C25.9196 19.4109 25.9291 19.2221 26.0493 19.1019L28.1007 17.0508C28.2173 16.9346 28.4153 16.9243 28.5402 17.0282L30.2558 18.254C30.3247 18.3029 30.4056 18.3278 30.4865 18.3278ZM35.0004 21.253C32.3822 21.253 30.2522 23.3826 30.2522 26.0004C30.2522 28.6186 32.3822 30.7486 35.0004 30.7486C37.6186 30.7486 39.7482 28.6186 39.7482 26.0004C39.7478 23.383 37.6182 21.253 35.0004 21.253ZM35.0004 29.9555C32.8196 29.9555 31.0453 28.1811 31.0453 26.0004C31.0453 23.82 32.8196 22.0462 35.0004 22.0462C37.1808 22.0462 38.9551 23.82 38.9551 26.0004C38.9547 28.1812 37.1807 29.9555 35.0004 29.9555Z"/>
</mask>
<path d="M36.4503 14H33.5493C32.9699 14 32.49 14.4342 32.4329 15.0097L32.1355 16.7919C31.5767 16.9656 31.0338 17.1913 30.5151 17.4641L29.0224 16.3981C28.844 16.2502 28.5918 16.1598 28.3332 16.1598C28.0333 16.1598 27.7518 16.2767 27.5396 16.4889L25.4885 18.54C25.0789 18.9497 25.0471 19.5961 25.414 20.0442L26.4641 21.5151C26.1904 22.0346 25.9652 22.578 25.7919 23.1352L23.9835 23.4369C23.4346 23.4896 23 23.9695 23 24.5497V27.4503C23 28.0297 23.4342 28.5095 24.0097 28.5671L25.7919 28.8653C25.966 29.4249 26.1916 29.9678 26.4637 30.4849L25.3981 31.9776C25.0467 32.4039 25.0784 33.0503 25.4885 33.4596L27.54 35.5115C27.9354 35.9061 28.6124 35.939 29.043 35.5868L30.5159 34.5363C31.0327 34.8087 31.5756 35.034 32.1355 35.2081L32.4365 37.0161C32.4901 37.5658 32.9703 38 33.5497 38H36.4507C37.0293 38 37.5091 37.5662 37.5675 36.9911L37.8653 35.2081C38.4245 35.034 38.9674 34.8087 39.4845 34.5363L40.9776 35.6023C41.1557 35.7498 41.4079 35.8398 41.6664 35.8398C41.9663 35.8398 42.2478 35.7233 42.4596 35.5115L44.5107 33.4596C44.92 33.0515 44.9529 32.4055 44.5868 31.957L43.5363 30.4849C43.8091 29.9677 44.034 29.4248 44.2081 28.8653L46.0165 28.5635C46.5662 28.5095 47 28.0297 47 27.4503V24.5497C47 23.9695 46.5658 23.4901 45.9895 23.4342L44.2081 23.1364C44.034 22.5764 43.8087 22.0331 43.5363 21.516L44.6023 20.0236C44.9533 19.5957 44.9203 18.9489 44.5103 18.5404L42.4596 16.4897C42.0658 16.0955 41.3872 16.0607 40.9554 16.4148L39.4845 17.4645C38.9657 17.1913 38.4229 16.9656 37.8653 16.7923L37.5631 14.9835C37.5091 14.4342 37.0293 14 36.4503 14ZM30.4865 18.3278C30.5532 18.3278 30.6202 18.3112 30.6805 18.2771C31.2849 17.9384 31.9281 17.6715 32.594 17.4831C32.7415 17.4415 32.8517 17.3182 32.8771 17.1667L33.2185 15.114C33.2384 14.9228 33.3824 14.7931 33.5493 14.7931H36.4503C36.6172 14.7931 36.7608 14.9224 36.7771 15.0878L37.1233 17.1667C37.1482 17.3178 37.2589 17.4411 37.4064 17.4827C38.0707 17.6707 38.7139 17.9376 39.3187 18.2767C39.4524 18.352 39.6182 18.3429 39.7431 18.2533L41.4368 17.0433C41.6077 16.9057 41.7818 16.9343 41.8976 17.0497L43.9491 19.1012C44.0696 19.2213 44.0791 19.4105 43.9721 19.5417L42.7459 21.2562C42.6562 21.3811 42.6475 21.5464 42.7225 21.6809C43.0611 22.2829 43.3276 22.9261 43.5156 23.5932C43.5573 23.7411 43.6806 23.8513 43.8325 23.8767L45.8856 24.219C46.0767 24.2388 46.2064 24.382 46.2064 24.5489V27.4495C46.2064 27.6164 46.0771 27.7604 45.9118 27.7767L43.8329 28.1225C43.681 28.1478 43.558 28.2581 43.516 28.406C43.328 29.0731 43.0611 29.7163 42.7229 30.3175C42.6479 30.452 42.6567 30.6173 42.7463 30.7422L43.957 32.4368C44.0796 32.5883 44.0696 32.7771 43.9499 32.8968L41.8984 34.9491C41.7831 35.0645 41.5844 35.0744 41.459 34.9717L39.7435 33.7451C39.6185 33.6555 39.4527 33.6468 39.3191 33.7217C38.7167 34.06 38.0735 34.3269 37.4068 34.5157C37.2593 34.5569 37.1491 34.6807 37.1236 34.8322L36.7818 36.8848C36.7608 37.08 36.62 37.2068 36.4503 37.2068H33.5493C33.3792 37.2068 33.2388 37.0803 33.2221 36.9122L32.8771 34.8337C32.8521 34.6822 32.7415 34.5589 32.594 34.5173C31.9261 34.3281 31.2829 34.0616 30.6821 33.7233C30.5473 33.6483 30.3819 33.6571 30.2573 33.7467L28.562 34.9575C28.3914 35.0939 28.2165 35.0665 28.1011 34.9503L26.0497 32.8988C25.9299 32.7791 25.9208 32.5903 26.0279 32.4598L27.2537 30.7438C27.3433 30.6185 27.352 30.4531 27.2771 30.3191C26.9392 29.7178 26.6723 29.0746 26.4831 28.4072C26.4419 28.2596 26.3182 28.1494 26.1667 28.124L24.114 27.7818C23.9196 27.7611 23.7932 27.6204 23.7932 27.4502V24.5496C23.7932 24.3799 23.9193 24.2395 24.087 24.2233L26.1663 23.8775C26.3178 23.8525 26.4411 23.7418 26.4827 23.594C26.6703 22.9305 26.9372 22.2868 27.2767 21.6809C27.3517 21.5468 27.3429 21.3818 27.2533 21.2569L26.0433 19.5631C25.9196 19.4109 25.9291 19.2221 26.0493 19.1019L28.1007 17.0508C28.2173 16.9346 28.4153 16.9243 28.5402 17.0282L30.2558 18.254C30.3247 18.3029 30.4056 18.3278 30.4865 18.3278ZM35.0004 21.253C32.3822 21.253 30.2522 23.3826 30.2522 26.0004C30.2522 28.6186 32.3822 30.7486 35.0004 30.7486C37.6186 30.7486 39.7482 28.6186 39.7482 26.0004C39.7478 23.383 37.6182 21.253 35.0004 21.253ZM35.0004 29.9555C32.8196 29.9555 31.0453 28.1811 31.0453 26.0004C31.0453 23.82 32.8196 22.0462 35.0004 22.0462C37.1808 22.0462 38.9551 23.82 38.9551 26.0004C38.9547 28.1812 37.1807 29.9555 35.0004 29.9555Z" fill="url(#paint1_linear)"/>
<path d="M36.4503 14H33.5493C32.9699 14 32.49 14.4342 32.4329 15.0097L32.1355 16.7919C31.5767 16.9656 31.0338 17.1913 30.5151 17.4641L29.0224 16.3981C28.844 16.2502 28.5918 16.1598 28.3332 16.1598C28.0333 16.1598 27.7518 16.2767 27.5396 16.4889L25.4885 18.54C25.0789 18.9497 25.0471 19.5961 25.414 20.0442L26.4641 21.5151C26.1904 22.0346 25.9652 22.578 25.7919 23.1352L23.9835 23.4369C23.4346 23.4896 23 23.9695 23 24.5497V27.4503C23 28.0297 23.4342 28.5095 24.0097 28.5671L25.7919 28.8653C25.966 29.4249 26.1916 29.9678 26.4637 30.4849L25.3981 31.9776C25.0467 32.4039 25.0784 33.0503 25.4885 33.4596L27.54 35.5115C27.9354 35.9061 28.6124 35.939 29.043 35.5868L30.5159 34.5363C31.0327 34.8087 31.5756 35.034 32.1355 35.2081L32.4365 37.0161C32.4901 37.5658 32.9703 38 33.5497 38H36.4507C37.0293 38 37.5091 37.5662 37.5675 36.9911L37.8653 35.2081C38.4245 35.034 38.9674 34.8087 39.4845 34.5363L40.9776 35.6023C41.1557 35.7498 41.4079 35.8398 41.6664 35.8398C41.9663 35.8398 42.2478 35.7233 42.4596 35.5115L44.5107 33.4596C44.92 33.0515 44.9529 32.4055 44.5868 31.957L43.5363 30.4849C43.8091 29.9677 44.034 29.4248 44.2081 28.8653L46.0165 28.5635C46.5662 28.5095 47 28.0297 47 27.4503V24.5497C47 23.9695 46.5658 23.4901 45.9895 23.4342L44.2081 23.1364C44.034 22.5764 43.8087 22.0331 43.5363 21.516L44.6023 20.0236C44.9533 19.5957 44.9203 18.9489 44.5103 18.5404L42.4596 16.4897C42.0658 16.0955 41.3872 16.0607 40.9554 16.4148L39.4845 17.4645C38.9657 17.1913 38.4229 16.9656 37.8653 16.7923L37.5631 14.9835C37.5091 14.4342 37.0293 14 36.4503 14ZM30.4865 18.3278C30.5532 18.3278 30.6202 18.3112 30.6805 18.2771C31.2849 17.9384 31.9281 17.6715 32.594 17.4831C32.7415 17.4415 32.8517 17.3182 32.8771 17.1667L33.2185 15.114C33.2384 14.9228 33.3824 14.7931 33.5493 14.7931H36.4503C36.6172 14.7931 36.7608 14.9224 36.7771 15.0878L37.1233 17.1667C37.1482 17.3178 37.2589 17.4411 37.4064 17.4827C38.0707 17.6707 38.7139 17.9376 39.3187 18.2767C39.4524 18.352 39.6182 18.3429 39.7431 18.2533L41.4368 17.0433C41.6077 16.9057 41.7818 16.9343 41.8976 17.0497L43.9491 19.1012C44.0696 19.2213 44.0791 19.4105 43.9721 19.5417L42.7459 21.2562C42.6562 21.3811 42.6475 21.5464 42.7225 21.6809C43.0611 22.2829 43.3276 22.9261 43.5156 23.5932C43.5573 23.7411 43.6806 23.8513 43.8325 23.8767L45.8856 24.219C46.0767 24.2388 46.2064 24.382 46.2064 24.5489V27.4495C46.2064 27.6164 46.0771 27.7604 45.9118 27.7767L43.8329 28.1225C43.681 28.1478 43.558 28.2581 43.516 28.406C43.328 29.0731 43.0611 29.7163 42.7229 30.3175C42.6479 30.452 42.6567 30.6173 42.7463 30.7422L43.957 32.4368C44.0796 32.5883 44.0696 32.7771 43.9499 32.8968L41.8984 34.9491C41.7831 35.0645 41.5844 35.0744 41.459 34.9717L39.7435 33.7451C39.6185 33.6555 39.4527 33.6468 39.3191 33.7217C38.7167 34.06 38.0735 34.3269 37.4068 34.5157C37.2593 34.5569 37.1491 34.6807 37.1236 34.8322L36.7818 36.8848C36.7608 37.08 36.62 37.2068 36.4503 37.2068H33.5493C33.3792 37.2068 33.2388 37.0803 33.2221 36.9122L32.8771 34.8337C32.8521 34.6822 32.7415 34.5589 32.594 34.5173C31.9261 34.3281 31.2829 34.0616 30.6821 33.7233C30.5473 33.6483 30.3819 33.6571 30.2573 33.7467L28.562 34.9575C28.3914 35.0939 28.2165 35.0665 28.1011 34.9503L26.0497 32.8988C25.9299 32.7791 25.9208 32.5903 26.0279 32.4598L27.2537 30.7438C27.3433 30.6185 27.352 30.4531 27.2771 30.3191C26.9392 29.7178 26.6723 29.0746 26.4831 28.4072C26.4419 28.2596 26.3182 28.1494 26.1667 28.124L24.114 27.7818C23.9196 27.7611 23.7932 27.6204 23.7932 27.4502V24.5496C23.7932 24.3799 23.9193 24.2395 24.087 24.2233L26.1663 23.8775C26.3178 23.8525 26.4411 23.7418 26.4827 23.594C26.6703 22.9305 26.9372 22.2868 27.2767 21.6809C27.3517 21.5468 27.3429 21.3818 27.2533 21.2569L26.0433 19.5631C25.9196 19.4109 25.9291 19.2221 26.0493 19.1019L28.1007 17.0508C28.2173 16.9346 28.4153 16.9243 28.5402 17.0282L30.2558 18.254C30.3247 18.3029 30.4056 18.3278 30.4865 18.3278ZM35.0004 21.253C32.3822 21.253 30.2522 23.3826 30.2522 26.0004C30.2522 28.6186 32.3822 30.7486 35.0004 30.7486C37.6186 30.7486 39.7482 28.6186 39.7482 26.0004C39.7478 23.383 37.6182 21.253 35.0004 21.253ZM35.0004 29.9555C32.8196 29.9555 31.0453 28.1811 31.0453 26.0004C31.0453 23.82 32.8196 22.0462 35.0004 22.0462C37.1808 22.0462 38.9551 23.82 38.9551 26.0004C38.9547 28.1812 37.1807 29.9555 35.0004 29.9555Z" stroke="url(#paint2_linear)" mask="url(#path-2-outside-1)"/>
<defs>
<linearGradient id="paint0_linear" x1="-7.65994" y1="-25.4872" x2="82.6122" y2="89.6648" gradientUnits="userSpaceOnUse">
<stop stop-color="#41F1FC"/>
<stop offset="1" stop-color="#0F86F3"/>
</linearGradient>
<linearGradient id="paint1_linear" x1="20.3737" y1="46.6154" x2="50.7822" y2="7.27188" gradientUnits="userSpaceOnUse">
<stop stop-color="#41F1FC"/>
<stop offset="1" stop-color="#0F86F3"/>
</linearGradient>
<linearGradient id="paint2_linear" x1="20.3737" y1="46.6154" x2="50.7822" y2="7.27188" gradientUnits="userSpaceOnUse">
<stop stop-color="#41F1FC"/>
<stop offset="1" stop-color="#0F86F3"/>
</linearGradient>
</defs>
</svg>
