<svg width="70" height="66" viewBox="0 0 70 66" fill="none" xmlns="http://www.w3.org/2000/svg">
<path d="M69.5701 39.9435L57.2004 63.3542C56.5952 64.5182 54.8798 65.7495 53.555 65.7495L3.94969 65.7586C2.90172 65.7586 1.89697 65.3432 1.15648 64.6021C0.415999 63.8609 0 62.8572 0 61.8089L0.0080295 23.2899C0.0080295 21.1115 1.77393 19.344 3.95252 19.3419L7.57938 19.3384V22.7033H5.15293C4.67801 22.7033 4.22187 22.8917 3.88581 23.2278C3.5501 23.5638 3.36129 24.0196 3.36129 24.4949L3.36483 60.6035C3.36483 61.594 4.16743 62.3952 5.15683 62.3952H7.64184L19.3649 38.6803C20.0272 37.3555 21.2788 36.2849 22.6016 36.2849H51.3118L51.3216 26.7413C53.1963 26.9151 54.6758 28.4701 54.6758 30.3891V36.285H67.8434C69.3984 36.301 70.7078 37.8386 69.5701 39.9435ZM9.86661 50.4574C9.75951 38.653 9.86661 3.23884 9.86661 3.23884C9.86661 1.45204 11.3197 0 13.1047 0H39.037C39.4524 0 39.8487 0.173815 40.1293 0.479526L48.5131 9.58839C48.7644 9.86269 48.9052 10.2218 48.9052 10.5938V34.191H46.1853V12.6314C46.1853 12.2584 45.8825 11.9554 45.509 11.9554H39.0921C38.3411 11.9554 37.7304 11.3458 37.7304 10.5962V3.39624C37.7304 3.0231 37.4275 2.72023 37.054 2.72023H13.1064C12.8203 2.72023 12.5874 2.95296 12.5874 3.23884V47.4883L10.5061 51.6991C10.5063 51.6983 9.87735 51.6523 9.86661 50.4574ZM40.4531 9.23663H44.4929L40.4531 4.84544V9.23663ZM41.9264 14.7256H16.8635C15.9401 14.7256 15.1905 15.4759 15.1905 16.3993C15.1905 17.322 15.9408 18.0726 16.8635 18.0726H41.9271C42.8505 18.0726 43.6023 17.3214 43.6023 16.3993C43.6008 15.4766 42.8492 14.7256 41.9264 14.7256ZM43.6008 26.1451C43.6008 25.2224 42.8499 24.4728 41.9264 24.4728H16.8635C15.9401 24.4728 15.1905 25.2238 15.1905 26.1451C15.1905 27.0678 15.9408 27.8173 16.8635 27.8173H41.9271C42.8492 27.8175 43.6008 27.0678 43.6008 26.1451ZM15.1895 35.9569C15.1895 36.8794 15.9401 37.6291 16.8628 37.6291H17.4637C18.5215 34.681 21.1436 34.2846 21.1436 34.2846H16.8628C15.9415 34.2846 15.1895 35.0342 15.1895 35.9569Z" fill="url(#paint0_linear)"/>
<defs>
<linearGradient id="paint0_linear" x1="-7.65994" y1="-23.6056" x2="74.2069" y2="89.1483" gradientUnits="userSpaceOnUse">
<stop stop-color="#41F1FC"/>
<stop offset="1" stop-color="#0F86F3"/>
</linearGradient>
</defs>
</svg>
