<svg width="76" height="76" viewBox="0 0 76 76" fill="none" xmlns="http://www.w3.org/2000/svg">
<path d="M41.8262 13.5321H16.2207C14.3349 13.5321 12.8055 15.0796 12.8055 16.986C12.8055 18.8925 14.3349 20.44 16.2207 20.44H41.8262C43.7152 20.44 45.2414 18.8925 45.2414 16.986C45.2398 15.0796 43.7136 13.5321 41.8262 13.5321Z" fill="url(#paint0_linear)"/>
<path d="M45.2398 29.9375C45.2398 28.0295 43.7136 26.4837 41.8246 26.4837H16.2207C14.3349 26.4837 12.8055 28.0311 12.8055 29.9375C12.8055 31.8455 14.3349 33.393 16.2207 33.393H41.8262C43.7136 33.393 45.2398 31.8455 45.2398 29.9375Z" fill="url(#paint1_linear)"/>
<path d="M29.0251 46.3521C30.9109 46.3521 32.4387 44.8047 32.4387 42.8983C32.4387 40.9904 30.9109 39.443 29.0251 39.443H16.2207C14.3349 39.443 12.8055 40.9904 12.8055 42.8983C12.8055 44.8063 14.3349 46.3521 16.2207 46.3521H29.0251Z" fill="url(#paint2_linear)"/>
<path d="M54.794 58.0983L51.2125 60.4899V69.089H6.82887V6.90938H51.2125V20.56L58.0414 8.59267V3.45388C58.0414 1.54584 56.512 0 54.6262 0H3.41364C1.52783 0 0 1.54746 0 3.45388V72.5461C0 74.4542 1.52783 76 3.41364 76H54.6262C56.5136 76 58.043 74.4525 58.043 72.5461V53.5061L56.4113 56.3617C56.0134 57.0586 55.454 57.6585 54.794 58.0983Z" fill="url(#paint3_linear)"/>
<path d="M74.9837 15.9994C74.9134 15.689 74.1927 12.898 69.8489 10.3594C65.5052 7.82233 62.7563 8.58554 62.4527 8.68095C62.0452 8.81192 61.7016 9.09004 61.4874 9.46518L40.149 46.8596C40.0164 47.094 39.9381 47.3544 39.9221 47.6228L39.123 61.1165C39.0847 61.7698 39.4139 62.3875 39.9716 62.7157C40.5342 63.0424 41.2262 63.0197 41.7663 62.6624L52.9166 55.2145C53.1387 55.069 53.3225 54.8701 53.4552 54.6389L74.7951 17.238C75.0093 16.8629 75.0748 16.4231 74.9837 15.9994ZM46.0685 56.6844C45.5012 56.2203 44.8572 55.7821 44.1652 55.3762C43.47 54.9704 42.7732 54.6292 42.0924 54.3608L42.3305 50.3151C43.2207 50.4331 44.5407 50.7986 46.2172 51.7752C47.892 52.7535 48.8621 53.7302 49.4119 54.4497L46.0685 56.6844Z" fill="url(#paint4_linear)"/>
<path d="M23.8045 62.3126C23.9164 63.0063 24.7074 63.2214 25.2364 63.4445C25.7478 63.6628 26.3583 63.2489 26.7834 63.0403C29.3884 61.758 32.9171 63.265 35.7075 63.265C37.3584 63.265 37.3584 60.6746 35.7075 60.6746C32.4537 60.6746 29.7464 59.8418 26.5213 60.3803C26.5213 60.1911 26.4526 59.9356 26.2513 59.588C25.6488 58.545 24.8816 58.2491 24.1129 58.3752C24.0618 58.2523 24.0123 58.1294 23.9403 58.0049C23.739 57.6718 23.4577 57.5053 23.1413 57.4358C24.041 55.8446 24.6211 54.1613 24.0314 52.7998C23.8508 52.3859 23.3378 52.174 22.9255 52.1579C21.2155 52.0932 19.7484 53.9091 18.6489 54.9989C15.8985 57.7268 13.4757 60.8234 11.1312 63.9054C10.1244 65.2297 12.3506 66.5168 13.3414 65.2151C15.419 62.4856 17.6197 59.8354 19.9881 57.3565C19.4176 58.3041 18.8119 59.2338 18.1742 60.1297C17.2633 61.5542 19.4384 62.767 20.3845 61.4378C20.6098 61.0902 20.8959 60.8395 21.2091 60.6245C21.1468 60.7846 21.0829 60.9414 21.0189 61.1031C21.0221 61.1031 21.0253 61.1047 21.0285 61.1063C20.979 61.2098 20.9294 61.3133 20.8895 61.412C20.3173 62.8624 22.4541 63.527 23.2308 62.408C23.4273 62.1267 23.6095 61.8259 23.7741 61.5106C23.7629 61.7273 23.7581 62.0183 23.8045 62.3126Z" fill="url(#paint5_linear)"/>
<defs>
<linearGradient id="paint0_linear" x1="9.25609" y1="11.0523" x2="12.1551" y2="28.6642" gradientUnits="userSpaceOnUse">
<stop stop-color="#41F1FC"/>
<stop offset="1" stop-color="#0F86F3"/>
</linearGradient>
<linearGradient id="paint1_linear" x1="9.25626" y1="24.0034" x2="12.1565" y2="41.6185" gradientUnits="userSpaceOnUse">
<stop stop-color="#41F1FC"/>
<stop offset="1" stop-color="#0F86F3"/>
</linearGradient>
<linearGradient id="paint2_linear" x1="10.6571" y1="36.9628" x2="15.239" y2="53.8087" gradientUnits="userSpaceOnUse">
<stop stop-color="#41F1FC"/>
<stop offset="1" stop-color="#0F86F3"/>
</linearGradient>
<linearGradient id="paint3_linear" x1="-6.35151" y1="-27.282" x2="93.1478" y2="71.0363" gradientUnits="userSpaceOnUse">
<stop stop-color="#41F1FC"/>
<stop offset="1" stop-color="#0F86F3"/>
</linearGradient>
<linearGradient id="paint4_linear" x1="35.1911" y1="-11.045" x2="105.589" y2="49.0174" gradientUnits="userSpaceOnUse">
<stop stop-color="#41F1FC"/>
<stop offset="1" stop-color="#0F86F3"/>
</linearGradient>
<linearGradient id="paint5_linear" x1="8.0229" y1="47.2739" x2="20.3749" y2="77.9077" gradientUnits="userSpaceOnUse">
<stop stop-color="#41F1FC"/>
<stop offset="1" stop-color="#0F86F3"/>
</linearGradient>
</defs>
</svg>
