<svg width="95" height="19" viewBox="0 0 95 19" fill="none" xmlns="http://www.w3.org/2000/svg">
<rect x="1.5" y="1.5" width="26" height="14.1472" rx="2.5" fill="url(#paint0_linear)" stroke="url(#paint1_linear)" stroke-width="3"/>
<line x1="3.95613" y1="6.89813" x2="12.8539" y2="6.89813" stroke="white"/>
<line x1="3.95613" y1="11.2667" x2="16.8084" y2="11.2667" stroke="white"/>
<path d="M41.7172 9.22264H38.8372V15.0006H37.5412V2.40064H38.8372V8.05264H41.7172L45.9832 2.40064H47.4232L42.7432 8.52064L47.6932 15.0006H46.1632L41.7172 9.22264ZM53.9306 5.46064C55.1666 5.46064 56.1146 5.77264 56.7746 6.39664C57.4346 7.00864 57.7646 7.92064 57.7646 9.13264V15.0006H56.5406V13.5246C56.2526 14.0166 55.8266 14.4006 55.2626 14.6766C54.7106 14.9526 54.0506 15.0906 53.2826 15.0906C52.2266 15.0906 51.3866 14.8386 50.7626 14.3346C50.1386 13.8306 49.8266 13.1646 49.8266 12.3366C49.8266 11.5326 50.1146 10.8846 50.6906 10.3926C51.2786 9.90064 52.2086 9.65464 53.4806 9.65464H56.4866V9.07864C56.4866 8.26264 56.2586 7.64464 55.8026 7.22464C55.3466 6.79264 54.6806 6.57664 53.8046 6.57664C53.2046 6.57664 52.6286 6.67864 52.0766 6.88264C51.5246 7.07464 51.0506 7.34464 50.6546 7.69264L50.0786 6.73864C50.5586 6.33064 51.1346 6.01864 51.8066 5.80264C52.4786 5.57464 53.1866 5.46064 53.9306 5.46064ZM53.4806 14.0826C54.2006 14.0826 54.8186 13.9206 55.3346 13.5966C55.8506 13.2606 56.2346 12.7806 56.4866 12.1566V10.6086H53.5166C51.8966 10.6086 51.0866 11.1726 51.0866 12.3006C51.0866 12.8526 51.2966 13.2906 51.7166 13.6146C52.1366 13.9266 52.7246 14.0826 53.4806 14.0826ZM67.1248 5.46064C68.0128 5.46064 68.8168 5.66464 69.5368 6.07264C70.2568 6.46864 70.8208 7.03264 71.2288 7.76464C71.6368 8.49664 71.8408 9.33064 71.8408 10.2666C71.8408 11.2146 71.6368 12.0546 71.2288 12.7866C70.8208 13.5186 70.2568 14.0886 69.5368 14.4966C68.8288 14.8926 68.0248 15.0906 67.1248 15.0906C66.3568 15.0906 65.6608 14.9346 65.0368 14.6226C64.4248 14.2986 63.9208 13.8306 63.5248 13.2186V18.4926H62.2468V5.53264H63.4708V7.40464C63.8548 6.78064 64.3588 6.30064 64.9828 5.96464C65.6188 5.62864 66.3328 5.46064 67.1248 5.46064ZM67.0348 13.9566C67.6948 13.9566 68.2948 13.8066 68.8348 13.5066C69.3748 13.1946 69.7948 12.7566 70.0948 12.1926C70.4068 11.6286 70.5628 10.9866 70.5628 10.2666C70.5628 9.54664 70.4068 8.91064 70.0948 8.35864C69.7948 7.79464 69.3748 7.35664 68.8348 7.04464C68.2948 6.73264 67.6948 6.57664 67.0348 6.57664C66.3628 6.57664 65.7568 6.73264 65.2168 7.04464C64.6888 7.35664 64.2688 7.79464 63.9568 8.35864C63.6568 8.91064 63.5068 9.54664 63.5068 10.2666C63.5068 10.9866 63.6568 11.6286 63.9568 12.1926C64.2688 12.7566 64.6888 13.1946 65.2168 13.5066C65.7568 13.8066 66.3628 13.9566 67.0348 13.9566ZM81.975 6.66664H78.393V15.0006H77.115V6.66664H73.533V5.53264H81.975V6.66664ZM88.1609 5.46064C89.3969 5.46064 90.3449 5.77264 91.0049 6.39664C91.6649 7.00864 91.9949 7.92064 91.9949 9.13264V15.0006H90.7709V13.5246C90.4829 14.0166 90.0569 14.4006 89.4929 14.6766C88.9409 14.9526 88.2809 15.0906 87.5129 15.0906C86.4569 15.0906 85.6169 14.8386 84.9929 14.3346C84.3689 13.8306 84.0569 13.1646 84.0569 12.3366C84.0569 11.5326 84.3449 10.8846 84.9209 10.3926C85.5089 9.90064 86.4389 9.65464 87.7109 9.65464H90.7169V9.07864C90.7169 8.26264 90.4889 7.64464 90.0329 7.22464C89.5769 6.79264 88.9109 6.57664 88.0349 6.57664C87.4349 6.57664 86.8589 6.67864 86.3069 6.88264C85.7549 7.07464 85.2809 7.34464 84.8849 7.69264L84.3089 6.73864C84.7889 6.33064 85.3649 6.01864 86.0369 5.80264C86.7089 5.57464 87.4169 5.46064 88.1609 5.46064ZM87.7109 14.0826C88.4309 14.0826 89.0489 13.9206 89.5649 13.5966C90.0809 13.2606 90.4649 12.7806 90.7169 12.1566V10.6086H87.7469C86.1269 10.6086 85.3169 11.1726 85.3169 12.3006C85.3169 12.8526 85.5269 13.2906 85.9469 13.6146C86.3669 13.9266 86.9549 14.0826 87.7109 14.0826Z" fill="black"/>
<defs>
<linearGradient id="paint0_linear" x1="29" y1="17.1472" x2="0.286684" y2="14.3136" gradientUnits="userSpaceOnUse">
<stop stop-color="#FF571D"/>
<stop offset="1" stop-color="#FE6C39"/>
</linearGradient>
<linearGradient id="paint1_linear" x1="29" y1="17.1472" x2="0.286684" y2="14.3136" gradientUnits="userSpaceOnUse">
<stop stop-color="#FF571D"/>
<stop offset="1" stop-color="#FE6C39"/>
</linearGradient>
</defs>
</svg>
