<svg width="162" height="46" viewBox="0 0 162 46" fill="none" xmlns="http://www.w3.org/2000/svg">
<rect x="1.5" y="1.5" width="159" height="43" rx="8.5" stroke="url(#paint0_linear)" stroke-width="3"/>
<path d="M50.27 13V34H45.41V16.9H41.21V13H50.27ZM62.618 20.89C65.578 20.89 67.758 21.48 69.158 22.66C70.578 23.84 71.288 25.42 71.288 27.4C71.288 28.68 70.968 29.85 70.328 30.91C69.688 31.95 68.708 32.79 67.388 33.43C66.088 34.05 64.478 34.36 62.558 34.36C61.078 34.36 59.618 34.17 58.178 33.79C56.758 33.39 55.548 32.83 54.548 32.11L56.468 28.39C57.268 28.99 58.188 29.46 59.228 29.8C60.268 30.12 61.338 30.28 62.438 30.28C63.658 30.28 64.618 30.04 65.318 29.56C66.018 29.08 66.368 28.41 66.368 27.55C66.368 26.65 65.998 25.97 65.258 25.51C64.538 25.05 63.278 24.82 61.478 24.82H56.108L57.188 13H69.998V16.9H61.238L60.908 20.89H62.618ZM83.7598 34.36C82.0198 34.36 80.4698 33.93 79.1098 33.07C77.7498 32.21 76.6798 30.97 75.8998 29.35C75.1398 27.71 74.7598 25.76 74.7598 23.5C74.7598 21.24 75.1398 19.3 75.8998 17.68C76.6798 16.04 77.7498 14.79 79.1098 13.93C80.4698 13.07 82.0198 12.64 83.7598 12.64C85.4998 12.64 87.0498 13.07 88.4098 13.93C89.7698 14.79 90.8298 16.04 91.5898 17.68C92.3698 19.3 92.7598 21.24 92.7598 23.5C92.7598 25.76 92.3698 27.71 91.5898 29.35C90.8298 30.97 89.7698 32.21 88.4098 33.07C87.0498 33.93 85.4998 34.36 83.7598 34.36ZM83.7598 30.25C85.0398 30.25 86.0398 29.7 86.7598 28.6C87.4998 27.5 87.8698 25.8 87.8698 23.5C87.8698 21.2 87.4998 19.5 86.7598 18.4C86.0398 17.3 85.0398 16.75 83.7598 16.75C82.4998 16.75 81.4998 17.3 80.7598 18.4C80.0398 19.5 79.6798 21.2 79.6798 23.5C79.6798 25.8 80.0398 27.5 80.7598 28.6C81.4998 29.7 82.4998 30.25 83.7598 30.25ZM105.621 34.36C103.881 34.36 102.331 33.93 100.971 33.07C99.6112 32.21 98.5412 30.97 97.7612 29.35C97.0012 27.71 96.6212 25.76 96.6212 23.5C96.6212 21.24 97.0012 19.3 97.7612 17.68C98.5412 16.04 99.6112 14.79 100.971 13.93C102.331 13.07 103.881 12.64 105.621 12.64C107.361 12.64 108.911 13.07 110.271 13.93C111.631 14.79 112.691 16.04 113.451 17.68C114.231 19.3 114.621 21.24 114.621 23.5C114.621 25.76 114.231 27.71 113.451 29.35C112.691 30.97 111.631 32.21 110.271 33.07C108.911 33.93 107.361 34.36 105.621 34.36ZM105.621 30.25C106.901 30.25 107.901 29.7 108.621 28.6C109.361 27.5 109.731 25.8 109.731 23.5C109.731 21.2 109.361 19.5 108.621 18.4C107.901 17.3 106.901 16.75 105.621 16.75C104.361 16.75 103.361 17.3 102.621 18.4C101.901 19.5 101.541 21.2 101.541 23.5C101.541 25.8 101.901 27.5 102.621 28.6C103.361 29.7 104.361 30.25 105.621 30.25Z" fill="url(#paint1_linear)"/>
<defs>
<linearGradient id="paint0_linear" x1="-17.7273" y1="-16.5128" x2="7.49363" y2="98.4072" gradientUnits="userSpaceOnUse">
<stop stop-color="#41F1FC"/>
<stop offset="1" stop-color="#0F86F3"/>
</linearGradient>
<linearGradient id="paint1_linear" x1="32.2458" y1="5.46154" x2="42.9615" y2="58.2779" gradientUnits="userSpaceOnUse">
<stop stop-color="#41F1FC"/>
<stop offset="1" stop-color="#0F86F3"/>
</linearGradient>
</defs>
</svg>
