<svg width="162" height="46" viewBox="0 0 162 46" fill="none" xmlns="http://www.w3.org/2000/svg">
<rect x="1.5" y="1.5" width="159" height="43" rx="8.5" stroke="url(#paint0_linear)" stroke-width="3"/>
<path d="M47.6571 20.89C50.6171 20.89 52.7971 21.48 54.1971 22.66C55.6171 23.84 56.3271 25.42 56.3271 27.4C56.3271 28.68 56.0071 29.85 55.3671 30.91C54.7271 31.95 53.7471 32.79 52.4271 33.43C51.1271 34.05 49.5171 34.36 47.5971 34.36C46.1171 34.36 44.6571 34.17 43.2171 33.79C41.7971 33.39 40.5871 32.83 39.5871 32.11L41.5071 28.39C42.3071 28.99 43.2271 29.46 44.2671 29.8C45.3071 30.12 46.3771 30.28 47.4771 30.28C48.6971 30.28 49.6571 30.04 50.3571 29.56C51.0571 29.08 51.4071 28.41 51.4071 27.55C51.4071 26.65 51.0371 25.97 50.2971 25.51C49.5771 25.05 48.3171 24.82 46.5171 24.82H41.1471L42.2271 13H55.0371V16.9H46.2771L45.9471 20.89H47.6571ZM68.7989 34.36C67.0589 34.36 65.5089 33.93 64.1489 33.07C62.7889 32.21 61.7189 30.97 60.9389 29.35C60.1789 27.71 59.7989 25.76 59.7989 23.5C59.7989 21.24 60.1789 19.3 60.9389 17.68C61.7189 16.04 62.7889 14.79 64.1489 13.93C65.5089 13.07 67.0589 12.64 68.7989 12.64C70.5389 12.64 72.0889 13.07 73.4489 13.93C74.8089 14.79 75.8689 16.04 76.6289 17.68C77.4089 19.3 77.7989 21.24 77.7989 23.5C77.7989 25.76 77.4089 27.71 76.6289 29.35C75.8689 30.97 74.8089 32.21 73.4489 33.07C72.0889 33.93 70.5389 34.36 68.7989 34.36ZM68.7989 30.25C70.0789 30.25 71.0789 29.7 71.7989 28.6C72.5389 27.5 72.9089 25.8 72.9089 23.5C72.9089 21.2 72.5389 19.5 71.7989 18.4C71.0789 17.3 70.0789 16.75 68.7989 16.75C67.5389 16.75 66.5389 17.3 65.7989 18.4C65.0789 19.5 64.7189 21.2 64.7189 23.5C64.7189 25.8 65.0789 27.5 65.7989 28.6C66.5389 29.7 67.5389 30.25 68.7989 30.25ZM90.6602 34.36C88.9202 34.36 87.3702 33.93 86.0102 33.07C84.6502 32.21 83.5802 30.97 82.8002 29.35C82.0402 27.71 81.6602 25.76 81.6602 23.5C81.6602 21.24 82.0402 19.3 82.8002 17.68C83.5802 16.04 84.6502 14.79 86.0102 13.93C87.3702 13.07 88.9202 12.64 90.6602 12.64C92.4002 12.64 93.9502 13.07 95.3102 13.93C96.6702 14.79 97.7302 16.04 98.4902 17.68C99.2702 19.3 99.6602 21.24 99.6602 23.5C99.6602 25.76 99.2702 27.71 98.4902 29.35C97.7302 30.97 96.6702 32.21 95.3102 33.07C93.9502 33.93 92.4002 34.36 90.6602 34.36ZM90.6602 30.25C91.9402 30.25 92.9402 29.7 93.6602 28.6C94.4002 27.5 94.7702 25.8 94.7702 23.5C94.7702 21.2 94.4002 19.5 93.6602 18.4C92.9402 17.3 91.9402 16.75 90.6602 16.75C89.4002 16.75 88.4002 17.3 87.6602 18.4C86.9402 19.5 86.5802 21.2 86.5802 23.5C86.5802 25.8 86.9402 27.5 87.6602 28.6C88.4002 29.7 89.4002 30.25 90.6602 30.25ZM112.522 34.36C110.782 34.36 109.232 33.93 107.872 33.07C106.512 32.21 105.442 30.97 104.662 29.35C103.902 27.71 103.522 25.76 103.522 23.5C103.522 21.24 103.902 19.3 104.662 17.68C105.442 16.04 106.512 14.79 107.872 13.93C109.232 13.07 110.782 12.64 112.522 12.64C114.262 12.64 115.812 13.07 117.172 13.93C118.532 14.79 119.592 16.04 120.352 17.68C121.132 19.3 121.522 21.24 121.522 23.5C121.522 25.76 121.132 27.71 120.352 29.35C119.592 30.97 118.532 32.21 117.172 33.07C115.812 33.93 114.262 34.36 112.522 34.36ZM112.522 30.25C113.802 30.25 114.802 29.7 115.522 28.6C116.262 27.5 116.632 25.8 116.632 23.5C116.632 21.2 116.262 19.5 115.522 18.4C114.802 17.3 113.802 16.75 112.522 16.75C111.262 16.75 110.262 17.3 109.522 18.4C108.802 19.5 108.442 21.2 108.442 23.5C108.442 25.8 108.802 27.5 109.522 28.6C110.262 29.7 111.262 30.25 112.522 30.25Z" fill="url(#paint1_linear)"/>
<defs>
<linearGradient id="paint0_linear" x1="-17.7273" y1="-16.5128" x2="7.49363" y2="98.4072" gradientUnits="userSpaceOnUse">
<stop stop-color="#41F1FC"/>
<stop offset="1" stop-color="#0F86F3"/>
</linearGradient>
<linearGradient id="paint1_linear" x1="27.3704" y1="5.46154" x2="37.1792" y2="58.6428" gradientUnits="userSpaceOnUse">
<stop stop-color="#41F1FC"/>
<stop offset="1" stop-color="#0F86F3"/>
</linearGradient>
</defs>
</svg>
