<svg width="273" height="260" viewBox="0 0 273 260" fill="none" xmlns="http://www.w3.org/2000/svg">
<path opacity="0.3" d="M253.767 197.684C245.739 189.569 232.305 182.485 211.127 171.775C200.451 166.378 182.682 157.4 178.375 153.288C196.414 130.871 206.884 105.551 206.884 83.388C206.884 68.3488 206.884 49.6336 198.558 32.9422C191.052 17.9095 174.28 0 137.003 0C99.718 0 82.9452 17.9095 75.4483 32.9401C67.1119 49.6336 67.1119 68.3466 67.1119 83.3858C67.1119 105.558 77.5733 130.871 95.6229 153.286C91.305 157.406 73.5379 166.387 62.8619 171.773C41.6906 182.481 28.2565 189.565 20.2219 197.681C2.43779 215.675 2.08867 251.941 1.99729 257.815C-2.26969 253.434 6.26526 262.195 1.99729 257.815C11.5 257.815 17.5975 257.815 23.658 257.815H250.329C256.406 257.815 266 257.815 272.996 257.815C272.981 251 272.996 257.815 272.996 251.728C272.905 245.865 271.549 215.677 253.767 197.684ZM254.373 256.102C253.293 257.202 251.857 257.815 250.329 257.815H23.658C22.1556 257.815 20.6872 257.194 19.6311 256.102C18.5771 255.019 17.98 253.526 17.9949 251.999C18.0437 249.12 18.8257 223.413 32.2429 209.844C38.4373 203.583 51.404 196.794 70.4673 187.15C90.8162 176.869 102.1 170.742 107.298 165.775L118.77 154.807L108.809 142.436C93.1176 122.95 84.1097 101.422 84.1097 83.388C84.1097 69.481 84.1097 53.7285 90.6186 40.6874C98.4131 25.0939 114.004 17.1876 137.003 17.1876C159.983 17.1876 175.591 25.0939 183.379 40.6788C189.888 53.7285 189.888 69.481 189.888 83.388C189.888 101.416 180.888 122.941 165.178 142.436L155.216 154.815L166.691 165.777C171.887 170.738 183.162 176.863 203.52 187.152C222.583 196.786 235.55 203.577 241.744 209.846C252.662 220.883 255.841 241.536 255.99 252.001C256.018 253.526 255.427 255.019 254.373 256.102Z" fill="#898989"/>
</svg>
