<svg width="159" height="59" viewBox="0 0 159 59" fill="none" xmlns="http://www.w3.org/2000/svg">
<path d="M24.5091 1.5V57.5H11.5491V11.9H0.349063V1.5H24.5091ZM57.9172 0.539999C65.7572 0.539999 71.8905 2.94 76.3172 7.74C80.7439 12.4867 82.9572 19.34 82.9572 28.3C82.9572 34.6467 81.7572 40.0867 79.3572 44.62C77.0105 49.1533 73.6772 52.5933 69.3572 54.94C65.0372 57.2867 60.0505 58.46 54.3972 58.46C51.4105 58.46 48.5572 58.14 45.8372 57.5C43.1172 56.8067 40.7972 55.8467 38.8772 54.62L43.6772 45.1C46.3972 46.9667 49.8905 47.9 54.1572 47.9C58.9039 47.9 62.6639 46.5133 65.4372 43.74C68.2105 40.9133 69.7039 36.86 69.9172 31.58C66.5572 34.94 61.9172 36.62 55.9972 36.62C52.4239 36.62 49.1705 35.9 46.2372 34.46C43.3039 33.02 40.9839 30.9933 39.2772 28.38C37.5705 25.7133 36.7172 22.6467 36.7172 19.18C36.7172 15.4467 37.6505 12.1667 39.5172 9.34C41.3839 6.51333 43.9172 4.35333 47.1172 2.86C50.3705 1.31333 53.9705 0.539999 57.9172 0.539999ZM58.8772 26.94C61.7039 26.94 63.9972 26.1667 65.7572 24.62C67.5705 23.02 68.4772 20.9933 68.4772 18.54C68.4772 16.0867 67.5972 14.0867 65.8372 12.54C64.1305 10.9933 61.7572 10.22 58.7172 10.22C55.9439 10.22 53.6772 10.9667 51.9172 12.46C50.2105 13.9533 49.3572 15.98 49.3572 18.54C49.3572 21.1 50.2105 23.1533 51.9172 24.7C53.6772 26.1933 55.9972 26.94 58.8772 26.94ZM106.135 31.74C102.028 31.74 98.668 30.3533 96.0547 27.58C93.4947 24.7533 92.2147 20.9933 92.2147 16.3C92.2147 11.6067 93.4947 7.87333 96.0547 5.1C98.668 2.27333 102.028 0.86 106.135 0.86C110.241 0.86 113.575 2.27333 116.135 5.1C118.695 7.87333 119.975 11.6067 119.975 16.3C119.975 20.9933 118.695 24.7533 116.135 27.58C113.575 30.3533 110.241 31.74 106.135 31.74ZM139.495 1.5H149.015L110.775 57.5H101.255L139.495 1.5ZM106.135 25.18C107.948 25.18 109.361 24.4333 110.375 22.94C111.441 21.4467 111.975 19.2333 111.975 16.3C111.975 13.3667 111.441 11.1533 110.375 9.66C109.361 8.16666 107.948 7.42 106.135 7.42C104.375 7.42 102.961 8.19333 101.895 9.74C100.828 11.2333 100.295 13.42 100.295 16.3C100.295 19.18 100.828 21.3933 101.895 22.94C102.961 24.4333 104.375 25.18 106.135 25.18ZM144.135 58.14C141.468 58.14 139.068 57.5267 136.935 56.3C134.855 55.02 133.228 53.2067 132.055 50.86C130.881 48.5133 130.295 45.7933 130.295 42.7C130.295 39.6067 130.881 36.8867 132.055 34.54C133.228 32.1933 134.855 30.4067 136.935 29.18C139.068 27.9 141.468 27.26 144.135 27.26C148.241 27.26 151.575 28.6733 154.135 31.5C156.748 34.2733 158.055 38.0067 158.055 42.7C158.055 47.3933 156.748 51.1533 154.135 53.98C151.575 56.7533 148.241 58.14 144.135 58.14ZM144.135 51.58C145.948 51.58 147.361 50.8333 148.375 49.34C149.441 47.7933 149.975 45.58 149.975 42.7C149.975 39.82 149.441 37.6333 148.375 36.14C147.361 34.5933 145.948 33.82 144.135 33.82C142.375 33.82 140.961 34.5667 139.895 36.06C138.828 37.5533 138.295 39.7667 138.295 42.7C138.295 45.6333 138.828 47.8467 139.895 49.34C140.961 50.8333 142.375 51.58 144.135 51.58Z" fill="url(#paint0_linear)"/>
<defs>
<linearGradient id="paint0_linear" x1="161" y1="54.5" x2="4.22029" y2="25.9998" gradientUnits="userSpaceOnUse">
<stop stop-color="#FF571D"/>
<stop offset="1" stop-color="#FE6C39"/>
</linearGradient>
</defs>
</svg>
