<svg width="21" height="25" viewBox="0 0 21 25" fill="none" xmlns="http://www.w3.org/2000/svg">
<path d="M2.56846 17.3661L9.44573 5.45427C10.5853 3.4805 13.1087 2.80436 15.0824 3.94392C17.0562 5.08348 17.7324 7.60687 16.5928 9.58064L10.4033 20.3012C9.64366 21.6169 7.96111 22.0677 6.64544 21.3081C5.32978 20.5485 4.87894 18.866 5.63854 17.5503L11.8281 6.82973C12.2081 6.1716 13.0495 5.94665 13.707 6.32628C14.3651 6.70625 14.5904 7.54705 14.2104 8.20518L8.70862 17.7346L9.8998 18.4223L15.4016 8.89291C16.1612 7.57725 15.7104 5.8947 14.3947 5.1351C13.0791 4.3755 11.3965 4.82634 10.6369 6.142L4.44736 16.8626C3.30781 18.8364 3.98395 21.3598 5.95772 22.4993C7.93149 23.6389 10.4549 22.9627 11.5944 20.989L18.1278 9.67277C19.1908 7.15364 18.1996 4.15536 15.7702 2.75274C13.3408 1.35013 10.2486 1.99088 8.59841 4.17096L1.37728 16.6783L2.56846 17.3661Z" fill="black" fill-opacity="0.3"/>
</svg>
