<svg width="23" height="29" viewBox="0 0 23 29" fill="none" xmlns="http://www.w3.org/2000/svg">
<path d="M16.8077 19.4661H6.1923C5.704 19.4661 5.3077 19.8624 5.3077 20.3507C5.3077 20.839 5.704 21.2353 6.1923 21.2353H16.8077C17.296 21.2353 17.6923 20.839 17.6923 20.3507C17.6923 19.8624 17.296 19.4661 16.8077 19.4661ZM15.9231 0.0045511V0.0302194C15.809 0.0302194 15.3383 -0.0140143 14.1538 0.0045511H3.53847C1.58433 0.0045511 0 1.58888 0 3.54302V24.7738C0 26.7279 1.58433 28.3122 3.53847 28.3122H19.4615C21.4157 28.3122 23 26.7279 23 24.7738V7.08145L15.9231 0.0045511ZM21.2308 24.7738C21.2308 25.7504 20.4391 26.543 19.4615 26.543H3.53847C2.56097 26.543 1.76923 25.7504 1.76923 24.7738V3.54302C1.76923 2.56552 2.56097 1.77378 3.53847 1.77378H14.1291C14.1131 3.89245 14.1538 5.31225 14.1538 5.31225C14.1538 7.26639 15.7382 8.85072 17.6923 8.85072C17.6923 8.85072 19.1705 8.85072 21.2307 8.85072V24.7738H21.2308ZM17.6923 7.08148C16.7148 7.08148 15.9231 6.28889 15.9231 5.31225C15.9231 5.31225 15.9231 3.88005 15.9231 1.77378L21.2307 7.08145H17.6923V7.08148ZM16.8077 14.1584H6.1923C5.704 14.1584 5.3077 14.5547 5.3077 15.043C5.3077 15.5313 5.704 15.9276 6.1923 15.9276H16.8077C17.296 15.9276 17.6923 15.5313 17.6923 15.043C17.6923 14.5547 17.296 14.1584 16.8077 14.1584Z" fill="url(#paint0_linear)"/>
<defs>
<linearGradient id="paint0_linear" x1="-2.51684" y1="-10.1634" x2="34.5063" y2="28.7505" gradientUnits="userSpaceOnUse">
<stop stop-color="#41F1FC"/>
<stop offset="1" stop-color="#0F86F3"/>
</linearGradient>
</defs>
</svg>
