<svg width="122" height="120" viewBox="0 0 122 120" fill="none" xmlns="http://www.w3.org/2000/svg">
<path d="M18.2071 36.5673C17.8738 35.5466 18.2871 34.4307 19.2049 33.8733L23.0496 31.5387C23.4482 31.2966 23.9543 31.6037 23.9237 32.0691C23.9126 32.2378 23.828 32.393 23.6923 32.4938L21.4611 34.1513C20.7642 34.6691 21.1149 35.7757 21.9829 35.7974L53.0853 35.1668C53.6922 35.1545 54.281 34.9584 54.774 34.6044L80.1504 16.3872L91.207 7.66684C93.3841 5.94981 92.2663 2.45154 89.497 2.31495L43.7251 0.0573965C42.9766 0.0204755 42.2413 0.265089 41.664 0.743091L6.16945 30.1342C4.03346 31.9029 5.2351 35.3743 8.00743 35.4439L10.2497 35.5002C11.0228 35.5196 11.6835 34.9469 11.7739 34.1788C11.8364 33.6481 12.177 33.191 12.6676 32.9793L15.4201 31.7919C15.5243 31.7469 15.6434 31.7518 15.7436 31.8051C15.9976 31.9402 16.01 32.2997 15.7659 32.452L14.0236 33.5387C13.5707 33.8212 13.2939 34.3158 13.2901 34.8496L13.2887 35.0374C13.2862 35.3905 13.262 35.7552 13.2223 36.1061C12.9001 38.9506 11.5363 52.5742 14.0198 59.663C14.32 60.5199 15.0855 61.1089 15.9927 61.1437C17.6139 61.2058 20.3404 60.9541 22.6832 59.0077C23.44 58.3789 23.6515 57.3371 23.402 56.3854L18.2071 36.5673ZM47.0878 13.8839C50.3877 12.7829 53.6009 13.5418 54.2641 15.5799C54.9294 17.6168 52.7925 20.1628 49.4916 21.2637C46.1911 22.3647 42.9777 21.6059 42.3124 19.5675C41.6482 17.5291 43.7859 14.9848 47.0878 13.8839ZM19.0547 57.0106C18.7344 57.1176 18.3937 56.9256 18.3265 56.5947C18.2992 56.4601 18.2682 56.3049 18.2341 56.1306C18.0007 54.9351 19.0713 54.7567 19.3394 55.9448L19.4297 56.345C19.4941 56.6303 19.332 56.9179 19.0547 57.0106Z" fill="url(#paint0_linear)"/>
<path d="M86.1748 34.8026C86.1556 34.748 86.1221 34.6995 86.1018 34.6427L82.4964 23.5823C81.8674 21.6525 79.5434 20.8913 77.8945 22.0751L55.8502 37.9017C55.357 38.2557 54.768 38.4518 54.161 38.4641L27.1025 39.0098C25.089 39.0504 23.6866 41.024 24.3106 42.9388L25.9614 48.0035L27.9877 54.2186C28.9435 57.1489 32.1136 59.0843 36.6555 59.9481C38.1801 60.238 39.3694 61.5105 39.3694 63.0624V102.835C39.3694 104.492 40.7125 105.835 42.3694 105.835H72.1101C73.767 105.835 75.1101 107.179 75.1101 108.835V112.077C75.1101 113.734 73.767 115.077 72.1101 115.077H62.8413C61.5588 115.077 60.5191 116.117 60.5191 117.399C60.5191 118.682 61.5588 119.721 62.8413 119.721H98.5285C99.811 119.721 100.851 118.682 100.851 117.399C100.851 116.117 99.811 115.077 98.5285 115.077H89.2594C87.6025 115.077 86.2594 113.734 86.2594 112.077V108.835C86.2594 107.179 87.6025 105.835 89.2594 105.835H119C120.657 105.835 122 104.492 122 102.835V50.4453C122 48.7885 120.657 47.4453 119 47.4453H79.5608C78.0003 47.4453 87.3935 38.5448 86.1748 34.8026ZM111.612 55.8151C113.269 55.8151 114.612 57.1582 114.612 58.8151V94.4671C114.612 96.1239 113.269 97.4671 111.612 97.4671H49.7591C48.1022 97.4671 46.7591 96.1239 46.7591 94.4671V63.0255C46.7591 61.4711 47.9476 60.1819 49.4871 59.967C53.1976 59.4491 57.1643 58.5241 61.208 57.175C62.2851 56.816 63.3314 56.4295 64.3588 56.027C64.7135 55.8881 65.0908 55.8149 65.4717 55.8149L111.612 55.8151Z" fill="url(#paint1_linear)"/>
<path d="M105.321 65.9766H53.7788V67.9688H105.321V65.9766Z" fill="url(#paint2_linear)"/>
<path d="M105.321 74.3828H53.7788V76.3752H105.321V74.3828Z" fill="url(#paint3_linear)"/>
<path d="M98.477 83.668H53.7788V85.6602H98.477V83.668Z" fill="url(#paint4_linear)"/>
<defs>
<linearGradient id="paint0_linear" x1="97.4927" y1="61.1518" x2="0.859974" y2="52.1624" gradientUnits="userSpaceOnUse">
<stop stop-color="#FF571D"/>
<stop offset="1" stop-color="#FE6C39"/>
</linearGradient>
<linearGradient id="paint1_linear" x1="122" y1="119.721" x2="23.4091" y2="114.031" gradientUnits="userSpaceOnUse">
<stop stop-color="#FF571D"/>
<stop offset="1" stop-color="#FE6C39"/>
</linearGradient>
<linearGradient id="paint2_linear" x1="105.321" y1="67.9687" x2="89.6068" y2="44.2447" gradientUnits="userSpaceOnUse">
<stop stop-color="#FF571D"/>
<stop offset="1" stop-color="#FE6C39"/>
</linearGradient>
<linearGradient id="paint3_linear" x1="105.321" y1="76.3752" x2="89.6041" y2="52.6501" gradientUnits="userSpaceOnUse">
<stop stop-color="#FF571D"/>
<stop offset="1" stop-color="#FE6C39"/>
</linearGradient>
<linearGradient id="paint4_linear" x1="98.477" y1="85.6602" x2="82.0115" y2="64.1036" gradientUnits="userSpaceOnUse">
<stop stop-color="#FF571D"/>
<stop offset="1" stop-color="#FE6C39"/>
</linearGradient>
</defs>
</svg>
