<svg width="113" height="112" viewBox="0 0 113 112" fill="none" xmlns="http://www.w3.org/2000/svg">
<path d="M102.223 80.0052C98.9759 76.721 93.5429 73.8543 84.9784 69.5198C80.6609 67.3356 73.4748 63.7019 71.7328 62.0376C79.0281 52.9652 83.2622 42.7181 83.2622 33.7482C83.2622 27.6617 83.2622 20.0874 79.8952 13.3322C76.8599 7.24822 70.0768 0 55.0017 0C39.9231 0 33.14 7.24822 30.1081 13.3313C26.7368 20.0874 26.7368 27.6608 26.7368 33.7473C26.7368 42.7207 30.9675 52.9652 38.267 62.0368C36.5208 63.7045 29.3356 67.339 25.0181 69.5189C16.4561 73.8525 11.0231 76.7193 7.77384 80.0043C0.581735 87.2864 0.0377512 99.5039 0.000798043 101.881C-0.0361551 104.361 0.910876 106.758 2.6365 108.531C4.35525 110.297 6.71252 111.296 9.16345 111.296H100.832C103.29 111.296 105.641 110.298 107.363 108.531C109.086 106.758 110.036 104.36 109.999 101.878C109.962 99.5047 109.414 87.2873 102.223 80.0052ZM102.468 103.648C102.031 104.093 101.45 104.341 100.832 104.341H9.16345C8.55588 104.341 7.96205 104.09 7.53494 103.648C7.10869 103.21 6.8672 102.605 6.87322 101.987C6.89299 100.822 7.20924 90.4184 12.6353 84.9266C15.1404 82.3928 20.3843 79.6452 28.0938 75.742C36.3231 71.5814 40.8864 69.1015 42.9885 67.0912L47.6282 62.6524L43.5995 57.6458C37.2538 49.7593 33.611 41.0469 33.611 33.7482C33.611 28.1199 33.611 21.7447 36.2432 16.4667C39.3954 10.1559 45.7006 6.95606 55.0017 6.95606C64.2949 6.95606 70.607 10.1559 73.7567 16.4633C76.3889 21.7447 76.3889 28.1199 76.3889 33.7482C76.3889 41.0443 72.7495 49.7558 66.3961 57.6458L62.3674 62.6559L67.008 67.0921C69.1092 69.0998 73.669 71.5788 81.9018 75.7428C89.6113 79.6417 94.8552 82.3902 97.3603 84.9274C101.776 89.3941 103.061 97.7527 103.122 101.988C103.133 102.605 102.894 103.21 102.468 103.648Z" fill="url(#paint0_linear)"/>
<path d="M92.2326 86.1256L92.4353 85.0388L91.6227 84.289C91.3615 84.048 91.1966 83.7014 91.1966 83.308C91.1966 82.5587 91.7908 81.9914 92.4745 81.9914C93.1583 81.9914 93.7524 82.5587 93.7524 83.308C93.7524 83.6898 93.5968 84.0276 93.3468 84.2687L92.5716 85.0163L92.7691 86.075L93.2921 88.8796H91.719L92.2326 86.1256ZM109.969 72.2154C109.715 71.89 109.432 71.6173 109.136 71.3893V66.4354C109.136 57.1736 101.685 49.6016 92.4745 49.6016C83.2638 49.6016 75.8135 57.1736 75.8135 66.4354V71.3252C75.5185 71.5529 75.2357 71.8264 74.9826 72.1538C74.3521 72.9694 74 73.9993 74 75.194V83.4984C74 93.772 82.264 102.167 92.4747 102.167C102.685 102.167 110.949 93.7719 110.949 83.4984V75.194C110.949 74.0255 110.594 73.0163 109.969 72.2154ZM100.08 70.2372H84.8688V66.4354C84.8688 62.1589 88.3045 58.7165 92.4745 58.7165C96.6445 58.7165 100.08 62.1589 100.08 66.4354V70.2372Z" fill="url(#paint1_linear)" stroke="white" stroke-width="4"/>
<defs>
<linearGradient id="paint0_linear" x1="110" y1="111.296" x2="0.391071" y2="104.975" gradientUnits="userSpaceOnUse">
<stop stop-color="#FF571D"/>
<stop offset="1" stop-color="#FE6C39"/>
</linearGradient>
<linearGradient id="paint1_linear" x1="108.949" y1="100.167" x2="76.0596" y2="98.8652" gradientUnits="userSpaceOnUse">
<stop stop-color="#FF571D"/>
<stop offset="1" stop-color="#FE6C39"/>
</linearGradient>
</defs>
</svg>
