<svg width="94" height="99" viewBox="0 0 94 99" fill="none" xmlns="http://www.w3.org/2000/svg">
<path d="M82.4775 86.7327C82.3174 84.6414 82.1277 82.453 81.2975 80.5147C81.1723 80.2223 80.9582 80.0293 80.706 79.9067C80.1707 78.6492 78.5516 77.7662 77.3255 78.6801C74.3259 80.9153 66.4011 77.6999 64.1531 75.5417C61.2215 72.7269 59.9963 68.1719 60.8171 64.2591C62.7082 55.2431 71.6926 55.0099 78.8626 53.1144C79.057 53.0635 79.1627 52.9392 79.3035 52.842C80.5983 52.3834 81.6569 51.1744 81.2867 49.4748C80.7796 47.1483 80.2507 44.8389 80.1255 42.4568C80.041 40.8518 78.2893 40.0672 77.0612 40.5808C66.287 38.7921 55.6832 38.8625 44.7798 39.3759C39.3907 39.6298 34.0058 40.0294 28.6105 40.1449C25.0228 40.2572 21.4361 40.2355 17.8502 40.0781C9.47283 35.3255 9.03292 33.1398 16.5299 33.5207C19.8123 33.238 21.1832 27.9529 17.3759 27.355C11.7781 26.4761 5.06755 28.8335 2.60865 32.8742C1.89654 33.1096 1.30547 33.7195 1.23384 34.7178C0.119611 50.2699 0.128009 65.8956 0.257685 81.4833C0.312026 88.0378 -0.545812 93.288 6.13139 96.1933C15.3651 100.212 33.3508 96.8538 43.4289 96.9398C53.6956 97.0276 69.6186 100.216 79.1279 96.3299C80.3841 95.8166 81.3551 94.8801 81.3536 93.4459C81.3534 93.2052 81.3534 92.9657 81.3531 92.7247C82.8174 91.1255 82.636 88.8071 82.4775 86.7327ZM75.5997 91.454C75.4982 92.058 22.9727 90.6406 18.6327 90.607C10.6503 90.5456 8.83606 92.5073 6.35839 81.4835C5.35531 77.0205 6.34011 71.4058 6.3201 66.869C6.28552 59.0203 6.10546 51.2109 5.75891 43.3947C12.2328 48.9785 23.4961 47.3605 31.3046 47.0893C46.1267 46.5742 60.5348 45.4768 75.2952 47.1403C75.2927 47.5937 75.3228 48.0491 75.35 48.5038C65.8236 46.0092 54.9997 56.6454 54.7031 65.7467C54.3079 77.867 65.4702 86.1782 77.1447 84.5651C76.979 85.3122 76.8085 86.0658 76.6806 86.7876C76.4736 87.9559 76.2703 89.0612 76.3313 90.1097C75.9855 90.4423 75.7002 90.8565 75.5997 91.454Z" fill="url(#paint0_linear)"/>
<path d="M92.2344 55.3756C92.4801 53.9711 90.7029 52.7155 89.5144 53.9238C86.9591 56.5228 83.3954 58.542 79.7012 58.908C76.7093 59.2045 73.5254 58.4358 70.7938 60.0868C66.373 62.7584 66.2369 69.2384 69.7174 72.705C74.077 77.0471 80.6107 76.3519 85.8234 74.1263C88.1047 73.1523 91.7727 71.9389 92.8378 69.4669C93.313 68.3641 93.0937 67.2915 92.9692 66.1219C92.6622 63.2357 92.7886 60.8173 93.7569 58.063C94.2627 56.6239 93.3725 55.6451 92.2344 55.3756ZM72.1316 66.4479C72.2349 66.0186 72.4505 65.6748 72.7148 65.3695C75.4009 64.2857 77.4286 66.4192 76.5436 69.0215C76.202 70.0257 76.5665 70.8049 77.2036 71.2788C74.6999 70.984 71.4153 69.4226 72.1316 66.4479Z" fill="url(#paint1_linear)"/>
<path d="M77.2309 31.6333C75.6074 27.0217 74.5611 21.4701 71.6884 17.4662C71.2744 16.8887 70.5861 16.3037 69.7986 16.3965C62.9023 17.2072 55.7605 21.2262 49.3441 23.7968C43.1086 26.2953 36.8634 28.7615 30.8659 31.7632C30.6206 31.7751 30.3751 31.7888 30.1296 31.8007C29.0838 31.8511 28.4196 32.4437 28.081 33.1793C27.9545 33.2483 27.8224 33.3058 27.6959 33.3752C26.5254 34.0156 27.1352 35.6494 28.2991 35.7295C28.6812 36.2327 29.275 36.5809 30.1294 36.5473C45.1135 35.9693 60.1436 35.5843 75.0938 34.4011C76.4282 34.2951 77.7387 33.0755 77.2309 31.6333Z" fill="url(#paint2_linear)"/>
<path d="M59.769 11.4611C56.9373 8.09071 54.1396 4.69038 51.223 1.39092C50.4634 0.532005 48.8011 0.530299 48.044 1.39092C39.8836 10.6619 31.0095 19.3451 22.6579 28.4523C21.4012 29.8231 22.3763 31.5982 23.7294 31.9968C24.1044 32.3964 24.7021 32.5982 25.3749 32.2792C36.8751 26.826 47.7316 20.211 59.3202 14.8962C60.7268 14.2505 60.5925 12.4408 59.769 11.4611Z" fill="url(#paint3_linear)"/>
<path d="M89.647 30.8835C87.2194 27.3269 81.8719 27.219 79.3186 30.5613C78.1923 32.0355 80.4452 34.2767 81.9393 33.1466C85.3659 30.5538 85.5327 37.3679 85.2787 39.0287C84.8527 41.8157 83.8271 45.1836 85.6779 47.6261C86.903 49.2431 89.3222 49.0891 90.0177 47.0667C90.509 45.6373 90.3583 44.2243 90.5337 42.7387C90.7064 41.2801 91.025 39.8384 91.1586 38.3737C91.3908 35.8245 91.1342 33.0621 89.647 30.8835Z" fill="url(#paint4_linear)"/>
<path d="M90.5681 80.0981C89.4413 78.7655 87.2677 79.3205 86.4412 80.6229C85.4823 82.1346 85.8188 83.5391 85.6515 85.2418C85.4954 86.8305 85.058 88.3152 84.6529 89.8527C83.8862 92.7635 87.9499 94.4492 89.547 91.8882C91.5023 88.7518 93.1794 83.1887 90.5681 80.0981Z" fill="url(#paint5_linear)"/>
<circle cx="30.8483" cy="68.3488" r="14.1652" fill="url(#paint6_linear)"/>
<circle cx="30.8482" cy="68.3457" r="16.3692" stroke="url(#paint7_linear)"/>
<path d="M29.6698 69.5567V70.2287H32.2618V71.2247H29.6698V72.3047H27.7138V71.2247H26.5498V70.2287H27.7138V63.9047H31.3498C32.4938 63.9047 33.3858 64.1447 34.0258 64.6247C34.6738 65.1047 34.9978 65.8087 34.9978 66.7367C34.9978 67.6567 34.6738 68.3567 34.0258 68.8367C33.3858 69.3167 32.4938 69.5567 31.3498 69.5567H29.6698ZM33.0298 66.7487C33.0298 66.3407 32.8818 66.0287 32.5858 65.8127C32.2978 65.5967 31.8818 65.4887 31.3378 65.4887H29.6698V68.0327H31.3378C31.8818 68.0327 32.2978 67.9247 32.5858 67.7087C32.8818 67.4847 33.0298 67.1647 33.0298 66.7487Z" fill="white"/>
<defs>
<linearGradient id="paint0_linear" x1="82.582" y1="98.2537" x2="0.593746" y2="92.709" gradientUnits="userSpaceOnUse">
<stop stop-color="#FF571D"/>
<stop offset="1" stop-color="#FE6C39"/>
</linearGradient>
<linearGradient id="paint1_linear" x1="93.9021" y1="75.8861" x2="67.4085" y2="74.0525" gradientUnits="userSpaceOnUse">
<stop stop-color="#FF571D"/>
<stop offset="1" stop-color="#FE6C39"/>
</linearGradient>
<linearGradient id="paint2_linear" x1="77.3427" y1="36.5495" x2="28.1197" y2="29.3875" gradientUnits="userSpaceOnUse">
<stop stop-color="#FF571D"/>
<stop offset="1" stop-color="#FE6C39"/>
</linearGradient>
<linearGradient id="paint3_linear" x1="60.3851" y1="32.4367" x2="22.2751" y2="29.7485" gradientUnits="userSpaceOnUse">
<stop stop-color="#FF571D"/>
<stop offset="1" stop-color="#FE6C39"/>
</linearGradient>
<linearGradient id="paint4_linear" x1="91.2334" y1="48.7243" x2="79.0318" y2="48.3018" gradientUnits="userSpaceOnUse">
<stop stop-color="#FF571D"/>
<stop offset="1" stop-color="#FE6C39"/>
</linearGradient>
<linearGradient id="paint5_linear" x1="91.9086" y1="93.1465" x2="84.5665" y2="92.9186" gradientUnits="userSpaceOnUse">
<stop stop-color="#FF571D"/>
<stop offset="1" stop-color="#FE6C39"/>
</linearGradient>
<linearGradient id="paint6_linear" x1="45.0134" y1="82.5139" x2="16.7861" y2="80.8668" gradientUnits="userSpaceOnUse">
<stop stop-color="#FF571D"/>
<stop offset="1" stop-color="#FE6C39"/>
</linearGradient>
<linearGradient id="paint7_linear" x1="47.7173" y1="85.2148" x2="14.1017" y2="83.2534" gradientUnits="userSpaceOnUse">
<stop stop-color="#FF571D"/>
<stop offset="1" stop-color="#FE6C39"/>
</linearGradient>
</defs>
</svg>
