<svg width="88" height="82" viewBox="0 0 88 82" fill="none" xmlns="http://www.w3.org/2000/svg">
<path d="M86.0245 29.7381C85.1052 28.5808 83.7195 27.9053 82.2525 27.9053H77.4141C77.4141 25.201 75.2485 23.0099 72.5757 23.0099H67.7374V18.1144C67.7374 15.4102 65.5717 13.219 62.899 13.219H60.4798V3.42818C60.4798 2.07704 59.394 0.980469 58.0606 0.980469H9.67676C8.33944 0.980469 7.25757 2.07704 7.25757 3.42818V13.219H4.83838C2.16566 13.219 0 15.4102 0 18.1144V76.8595C0 79.5637 2.16566 81.7549 4.83838 81.7549H14.5151H62.899H72.5757C74.844 81.7549 76.8103 80.1609 77.2961 77.9208L86.9728 33.862C87.2941 32.413 86.9438 30.8954 86.0245 29.7381ZM7.25757 76.8595H4.83838V18.1144H7.25757V76.8595ZM58.0606 23.0099C55.3879 23.0099 53.2222 25.201 53.2222 27.9053H24.1919C21.9237 27.9053 19.9574 29.4992 19.4677 31.7394C19.4677 31.7394 9.68064 76.507 9.68064 76.8595H9.67676V3.42818H58.0606V23.0099ZM62.899 23.0099H60.4798V18.1144H62.899V23.0099ZM48.0606 14.2803H19.1929C17.8575 14.2803 16.7737 13.1838 16.7737 11.8326C16.7737 10.4815 17.8575 9.38492 19.1929 9.38492H48.0606C49.396 9.38492 50.4798 10.4815 50.4798 11.8326C50.4798 13.1838 49.396 14.2803 48.0606 14.2803ZM48.0606 24.2337H19.1929C17.8575 24.2337 16.7737 23.1371 16.7737 21.786C16.7737 20.4349 17.8575 19.3383 19.1929 19.3383H48.0606C49.396 19.3383 50.4798 20.4349 50.4798 21.786C50.4798 23.1371 49.396 24.2337 48.0606 24.2337Z" fill="url(#paint0_linear)"/>
<defs>
<linearGradient id="paint0_linear" x1="87.0895" y1="81.7548" x2="0.364443" y2="76.2987" gradientUnits="userSpaceOnUse">
<stop stop-color="#FF571D"/>
<stop offset="1" stop-color="#FE6C39"/>
</linearGradient>
</defs>
</svg>
