<svg width="94" height="96" viewBox="0 0 94 96" fill="none" xmlns="http://www.w3.org/2000/svg">
<path d="M52.4026 16.9531H20.3204C17.9575 16.9531 16.0413 18.8921 16.0413 21.2808C16.0413 23.6695 17.9575 25.6084 20.3204 25.6084H52.4026C54.7694 25.6084 56.6817 23.6695 56.6817 21.2808C56.6797 18.8921 54.7674 16.9531 52.4026 16.9531Z" fill="url(#paint0_linear)"/>
<path d="M56.6797 37.5111C56.6797 35.1204 54.7675 33.1836 52.4006 33.1836H20.3204C17.9575 33.1836 16.0413 35.1224 16.0413 37.5111C16.0413 39.9017 17.9575 41.8406 20.3204 41.8406H52.4026C54.7675 41.8406 56.6797 39.9017 56.6797 37.5111Z" fill="url(#paint1_linear)"/>
<path d="M36.3635 58.0747C38.7263 58.0747 40.6406 56.1359 40.6406 53.7474C40.6406 51.3568 38.7263 49.418 36.3635 49.418H20.3204C17.9575 49.418 16.0413 51.3568 16.0413 53.7474C16.0413 56.1379 17.9575 58.0747 20.3204 58.0747H36.3635Z" fill="url(#paint2_linear)"/>
<path d="M68.6539 72.7941L64.1665 75.7905V86.5648H8.5562V8.65708H64.1665V25.7606L72.7227 10.7661V4.32753C72.7227 1.93685 70.8064 0 68.4436 0H4.2771C1.91428 0 0 1.93888 0 4.32753V90.8964C0 93.287 1.91428 95.2239 4.2771 95.2239H68.4436C70.8084 95.2239 72.7247 93.285 72.7247 90.8964V67.0402L70.6803 70.6181C70.1817 71.4913 69.4809 72.243 68.6539 72.7941Z" fill="url(#paint3_linear)"/>
<path d="M93.95 20.045C93.8619 19.656 92.9588 16.1591 87.5163 12.9783C82.0738 9.79954 78.6297 10.7558 78.2493 10.8753C77.7387 11.0395 77.3081 11.3879 77.0398 11.858L50.304 58.7111C50.1378 59.0049 50.0397 59.3311 50.0196 59.6674L49.0184 76.5743C48.9704 77.3928 49.3829 78.1667 50.0817 78.578C50.7865 78.9873 51.6536 78.9589 52.3304 78.5112L66.301 69.1794C66.5794 68.9971 66.8096 68.7479 66.9758 68.4582L93.7137 21.5969C93.982 21.1269 94.0641 20.5758 93.95 20.045ZM57.7208 71.0211C57.01 70.4396 56.203 69.8905 55.336 69.382C54.4649 68.8735 53.5919 68.446 52.7389 68.1097L53.0372 63.0407C54.1526 63.1886 55.8065 63.6464 57.907 64.8701C60.0055 66.0959 61.221 67.3196 61.9098 68.2211L57.7208 71.0211Z" fill="url(#paint4_linear)"/>
<path d="M29.8236 78.0731C29.9638 78.9423 30.955 79.2117 31.6178 79.4913C32.2585 79.7648 33.0234 79.2462 33.5561 78.9848C36.82 77.3782 41.2412 79.2664 44.7374 79.2664C46.8059 79.2664 46.8059 76.0208 44.7374 76.0208C40.6605 76.0208 37.2685 74.9774 33.2277 75.652C33.2277 75.415 33.1416 75.0949 32.8893 74.6593C32.1344 73.3525 31.1732 72.9817 30.2101 73.1398C30.146 72.9858 30.0839 72.8318 29.9938 72.6758C29.7415 72.2585 29.3891 72.0498 28.9926 71.9627C30.12 69.9691 30.8468 67.86 30.108 66.1541C29.8817 65.6354 29.2389 65.37 28.7223 65.3498C26.5798 65.2687 24.7416 67.5439 23.3639 68.9095C19.9178 72.3273 16.8822 76.2072 13.9447 80.0687C12.6832 81.728 15.4725 83.3407 16.714 81.7098C19.3171 78.2899 22.0744 74.9693 25.0419 71.8634C24.3271 73.0506 23.5682 74.2156 22.7692 75.338C21.6279 77.1229 24.3531 78.6424 25.5385 76.977C25.8209 76.5414 26.1793 76.2274 26.5717 75.958C26.4937 76.1585 26.4136 76.3551 26.3335 76.5577C26.3375 76.5577 26.3415 76.5597 26.3455 76.5617C26.2834 76.6914 26.2213 76.821 26.1713 76.9446C25.4544 78.762 28.1316 79.5946 29.1048 78.1926C29.3511 77.8401 29.5793 77.4633 29.7856 77.0682C29.7716 77.3397 29.7656 77.7044 29.8236 78.0731Z" fill="url(#paint5_linear)"/>
<defs>
<linearGradient id="paint0_linear" x1="56.6817" y1="25.6084" x2="18.8882" y2="15.2536" gradientUnits="userSpaceOnUse">
<stop stop-color="#FF571D"/>
<stop offset="1" stop-color="#FE6C39"/>
</linearGradient>
<linearGradient id="paint1_linear" x1="56.6797" y1="41.8406" x2="18.8867" y2="31.4885" gradientUnits="userSpaceOnUse">
<stop stop-color="#FF571D"/>
<stop offset="1" stop-color="#FE6C39"/>
</linearGradient>
<linearGradient id="paint2_linear" x1="40.6406" y1="58.0747" x2="16.7053" y2="54.1059" gradientUnits="userSpaceOnUse">
<stop stop-color="#FF571D"/>
<stop offset="1" stop-color="#FE6C39"/>
</linearGradient>
<linearGradient id="paint3_linear" x1="72.7247" y1="95.2238" x2="0.161796" y2="91.9901" gradientUnits="userSpaceOnUse">
<stop stop-color="#FF571D"/>
<stop offset="1" stop-color="#FE6C39"/>
</linearGradient>
<linearGradient id="paint4_linear" x1="94" y1="78.8669" x2="49.0921" y2="77.1389" gradientUnits="userSpaceOnUse">
<stop stop-color="#FF571D"/>
<stop offset="1" stop-color="#FE6C39"/>
</linearGradient>
<linearGradient id="paint5_linear" x1="46.2888" y1="82.3884" x2="14.0359" y2="78.781" gradientUnits="userSpaceOnUse">
<stop stop-color="#FF571D"/>
<stop offset="1" stop-color="#FE6C39"/>
</linearGradient>
</defs>
</svg>
