<svg width="148" height="128" viewBox="0 0 148 128" fill="none" xmlns="http://www.w3.org/2000/svg">
<path d="M119.261 40.7898C119.261 46.5301 123.932 51.2007 129.672 51.2007C135.412 51.2007 140.083 46.5301 140.083 40.7898C140.083 35.0495 135.412 30.3789 129.672 30.3789C123.932 30.3789 119.261 35.0491 119.261 40.7898Z" fill="url(#paint0_linear)"/>
<path d="M140.327 54.6565C140.303 54.6485 137.679 53.8435 137.679 53.8435C136.73 53.5535 135.698 53.7321 134.903 54.3273L129.672 58.2437L124.441 54.3273C123.646 53.7317 122.614 53.553 121.665 53.8435C121.665 53.8435 119.042 54.6485 119.017 54.6565C114.797 56.0639 111.961 59.9981 111.961 64.4468V80.1859C111.961 80.7931 112.138 81.387 112.473 81.894L117.751 89.9268V111.022C117.751 112.74 119.144 114.133 120.862 114.133H138.483C140.201 114.133 141.594 112.74 141.594 111.022V89.9268L146.872 81.894C147.206 81.3865 147.383 80.7927 147.383 80.1859V64.4468C147.383 59.9981 144.547 56.0639 140.327 54.6565Z" fill="url(#paint1_linear)"/>
<path d="M18.3276 51.2007C24.0679 51.2007 28.7385 46.5301 28.7385 40.7898C28.7385 35.0495 24.0679 30.3789 18.3276 30.3789C12.5873 30.3789 7.91626 35.0491 7.91626 40.7898C7.91626 46.5305 12.5869 51.2007 18.3276 51.2007Z" fill="url(#paint2_linear)"/>
<path d="M28.9821 54.6565C28.9581 54.6485 26.335 53.8435 26.335 53.8435C25.3847 53.5535 24.3538 53.7321 23.5582 54.3273L18.3275 58.2437L13.0969 54.3273C12.3017 53.7317 11.269 53.553 10.3201 53.8435C10.3201 53.8435 7.69703 54.6485 7.67297 54.6565C3.45231 56.0639 0.616699 59.9981 0.616699 64.4468V80.1859C0.616699 80.7931 0.794008 81.387 1.12813 81.894L6.40641 89.9268V111.022C6.40641 112.74 7.79905 114.133 9.51734 114.133H27.1378C28.856 114.133 30.2487 112.74 30.2487 111.022V89.9268L35.527 81.894C35.8606 81.3865 36.0384 80.7927 36.0384 80.1859V64.4468C36.0384 59.9981 33.2023 56.0639 28.9821 54.6565Z" fill="url(#paint3_linear)"/>
<path d="M87.4278 26.1158C87.4278 18.7115 81.4038 12.6875 73.9995 12.6875C66.5953 12.6875 60.5713 18.7115 60.5713 26.1158C60.5713 33.5204 66.5953 39.544 73.9995 39.544C81.4038 39.544 87.4278 33.5204 87.4278 26.1158Z" fill="url(#paint4_linear)"/>
<path d="M88.7486 46.0527L88.7264 46.0455L84.8937 44.8694C84.2892 44.6836 83.6432 45.0035 83.4258 45.6L75.3667 67.7124C74.9016 68.9879 73.0978 68.9879 72.6327 67.7124L64.5736 45.6C64.3981 45.1185 63.9437 44.8164 63.4563 44.8164C63.3409 44.8164 59.2775 46.0438 59.2775 46.0438C54.3815 47.6752 51.1106 52.2139 51.1106 57.3461V80.7375C51.1106 80.9696 51.1788 81.1968 51.3062 81.3911L59.7154 94.1876V126.567C59.7154 127.224 60.2482 127.757 60.9058 127.757H87.0936C87.7512 127.757 88.284 127.224 88.284 126.567V94.1876L96.6932 81.3911C96.8207 81.1968 96.8888 80.9696 96.8888 80.7375V57.2846C96.8884 52.1747 93.6046 47.6435 88.7486 46.0527Z" fill="url(#paint5_linear)"/>
<path d="M77.1482 45.5883C76.8154 45.2256 76.3285 45.043 75.8358 45.043H72.1626C71.6704 45.043 71.1834 45.2256 70.8502 45.5883C70.3348 46.15 70.2599 46.9613 70.6257 47.5952L72.589 50.5551L71.6699 58.3091L73.48 63.124C73.6564 63.6083 74.3411 63.6083 74.518 63.124L76.3281 58.3091L75.409 50.5551L77.3723 47.5952C77.7385 46.9613 77.6637 46.15 77.1482 45.5883Z" fill="url(#paint6_linear)"/>
<rect width="33.5134" height="4.46845" rx="2.23423" transform="matrix(-0.707107 -0.707107 -0.707107 0.707107 87.4277 87.7539)" fill="white"/>
<rect width="33.5134" height="4.46845" rx="2.23423" transform="matrix(-0.707107 0.707107 0.707107 0.707107 84.2681 64.0547)" fill="white"/>
<path d="M18.8617 24.8386C19.6969 25.1818 20.6517 24.7833 20.9952 23.9485C24.0174 16.5989 30.1433 11.2071 37.8023 9.15487C45.4613 7.10265 53.4625 8.70936 59.7545 13.563C60.1744 13.8868 60.7016 13.9746 61.1772 13.8472C61.511 13.7577 61.8197 13.5619 62.0472 13.2671C62.5984 12.5522 62.4658 11.5259 61.7513 10.9744C54.6451 5.49311 45.6078 3.67894 36.9562 5.99712C28.3046 8.31531 21.3851 14.4051 17.9719 22.7051C17.6286 23.54 18.027 24.4951 18.8617 24.8386Z" fill="url(#paint7_linear)"/>
<path d="M127.933 24.8386C127.098 25.1818 126.143 24.7833 125.799 23.9485C122.777 16.5989 116.651 11.2071 108.992 9.15487C101.333 7.10265 93.332 8.70936 87.0399 13.563C86.62 13.8868 86.0928 13.9746 85.6172 13.8472C85.2834 13.7577 84.9747 13.5619 84.7472 13.2671C84.1961 12.5522 84.3286 11.5259 85.0431 10.9744C92.1493 5.49311 101.187 3.67894 109.838 5.99712C118.49 8.31531 125.409 14.4051 128.823 22.7051C129.166 23.54 128.767 24.4951 127.933 24.8386Z" fill="url(#paint8_linear)"/>
<defs>
<linearGradient id="paint0_linear" x1="140.083" y1="51.2007" x2="119.337" y2="49.9901" gradientUnits="userSpaceOnUse">
<stop stop-color="#FF571D"/>
<stop offset="1" stop-color="#FE6C39"/>
</linearGradient>
<linearGradient id="paint1_linear" x1="147.383" y1="114.133" x2="112.011" y2="112.923" gradientUnits="userSpaceOnUse">
<stop stop-color="#FF571D"/>
<stop offset="1" stop-color="#FE6C39"/>
</linearGradient>
<linearGradient id="paint2_linear" x1="28.7385" y1="51.2007" x2="7.99197" y2="49.9901" gradientUnits="userSpaceOnUse">
<stop stop-color="#FF571D"/>
<stop offset="1" stop-color="#FE6C39"/>
</linearGradient>
<linearGradient id="paint3_linear" x1="36.0384" y1="114.133" x2="0.6667" y2="112.923" gradientUnits="userSpaceOnUse">
<stop stop-color="#FF571D"/>
<stop offset="1" stop-color="#FE6C39"/>
</linearGradient>
<linearGradient id="paint4_linear" x1="87.4278" y1="39.544" x2="60.6689" y2="37.9826" gradientUnits="userSpaceOnUse">
<stop stop-color="#FF571D"/>
<stop offset="1" stop-color="#FE6C39"/>
</linearGradient>
<linearGradient id="paint5_linear" x1="96.8888" y1="127.757" x2="51.1692" y2="126.284" gradientUnits="userSpaceOnUse">
<stop stop-color="#FF571D"/>
<stop offset="1" stop-color="#FE6C39"/>
</linearGradient>
<linearGradient id="paint6_linear" x1="77.6004" y1="63.4872" x2="70.4034" y2="63.3232" gradientUnits="userSpaceOnUse">
<stop stop-color="#FF571D"/>
<stop offset="1" stop-color="#FE6C39"/>
</linearGradient>
<linearGradient id="paint7_linear" x1="62.7548" y1="13.4246" x2="17.7231" y2="16.6008" gradientUnits="userSpaceOnUse">
<stop stop-color="#FF571D"/>
<stop offset="1" stop-color="#FE6C39"/>
</linearGradient>
<linearGradient id="paint8_linear" x1="84.0396" y1="13.4246" x2="129.071" y2="16.6008" gradientUnits="userSpaceOnUse">
<stop stop-color="#FF571D"/>
<stop offset="1" stop-color="#FE6C39"/>
</linearGradient>
</defs>
</svg>
