<svg width="118" height="119" viewBox="0 0 118 119" fill="none" xmlns="http://www.w3.org/2000/svg">
<path d="M114.225 1.14062H51.4979C49.411 1.14062 47.7231 2.85374 47.7231 4.96208V31.9162L50.4524 28.6876C51.7484 27.1526 53.457 26.206 55.2729 25.8105V8.78207H110.45V58.6803H55.2731V50.3274L53.5732 52.3387C52.0877 54.0925 49.9906 55.1809 47.7231 55.3953V62.5005C47.7231 64.6088 49.411 66.3198 51.4979 66.3198H71.87L61.5201 113.863C61.0564 115.995 62.3881 118.103 64.497 118.574C66.5868 119.038 68.6882 117.695 69.1475 115.565L79.867 66.32H86.0986L96.8181 115.565C97.2198 117.409 98.836 118.667 100.629 118.665C100.907 118.665 101.191 118.636 101.473 118.574C103.582 118.103 104.913 115.995 104.445 113.863L94.0966 66.3198H114.226C116.311 66.3198 118 64.6088 118 62.5005V4.96208C118 2.85374 116.31 1.14062 114.225 1.14062Z" fill="url(#paint0_linear)"/>
<path d="M84.2403 23.4505C83.9428 22.6918 83.0994 22.3193 82.35 22.6196L60.1104 30.5618C58.0693 28.9629 55.1245 29.2485 53.4224 31.2515L46.3655 39.5896L40.1082 34.1627C40.1494 34.6108 40.2432 35.0463 40.2432 35.5062V47.2874L43.7245 50.3054C45.7904 52.0956 48.8809 51.819 50.6083 49.7692L59.0094 39.8294L65.7849 35.8189L83.6161 25.2634C84.2326 24.9038 84.5058 24.1353 84.2403 23.4505Z" fill="url(#paint1_linear)"/>
<path d="M26.5061 25.5664H22.3152C19.1063 25.5664 16.2847 27.1444 14.4913 29.5496L1.62695 41.5331C-0.377489 43.3397 -0.559294 46.469 1.24574 48.5093L11.7413 60.3623C13.5306 62.3894 16.6281 62.5687 18.6323 60.7468C20.6418 58.9246 20.8115 55.8036 19.0108 53.7728L11.7765 45.599L22.0521 36.2957L16.0675 44.5224L21.9216 51.1355C25.1565 54.7931 24.8515 60.4128 21.2383 63.6882C18.7714 65.9259 15.4049 66.4509 12.4863 65.4189C12.4863 65.4189 12.5317 88.2683 12.5317 112.739C12.5317 116.012 15.1536 118.665 18.3887 118.665C21.6205 118.665 24.2458 116.012 24.2458 112.739C24.2458 88.2759 24.2458 102.236 24.2458 77.4197H28.1527C28.1527 102.218 28.1527 88.2683 28.1527 112.739C28.1527 114.447 27.6818 116.03 26.9309 117.43C27.9138 118.195 29.1367 118.665 30.4696 118.665C33.7064 118.665 36.3284 116.012 36.3284 112.739C36.3284 88.2759 36.3359 98.5309 36.3359 35.5092C36.3364 30.0178 31.9366 25.5664 26.5061 25.5664Z" fill="url(#paint2_linear)"/>
<path d="M19.1914 22.0083C20.7575 22.8319 22.5158 23.343 24.4045 23.343C26.298 23.343 28.0562 22.8319 29.6269 22.0068C33.2929 20.0851 35.8199 16.2593 35.8199 11.7941C35.8199 5.41542 30.7091 0.246094 24.4042 0.246094C18.1003 0.246094 12.9907 5.41542 12.9907 11.7941C12.991 16.2618 15.5206 20.089 19.1914 22.0083Z" fill="url(#paint3_linear)"/>
<defs>
<linearGradient id="paint0_linear" x1="118" y1="118.665" x2="47.8257" y2="116.217" gradientUnits="userSpaceOnUse">
<stop stop-color="#FF571D"/>
<stop offset="1" stop-color="#FE6C39"/>
</linearGradient>
<linearGradient id="paint1_linear" x1="84.3416" y1="51.4934" x2="40.467" y2="47.5855" gradientUnits="userSpaceOnUse">
<stop stop-color="#FF571D"/>
<stop offset="1" stop-color="#FE6C39"/>
</linearGradient>
<linearGradient id="paint2_linear" x1="36.3359" y1="118.665" x2="0.0276706" y2="117.838" gradientUnits="userSpaceOnUse">
<stop stop-color="#FF571D"/>
<stop offset="1" stop-color="#FE6C39"/>
</linearGradient>
<linearGradient id="paint3_linear" x1="35.8199" y1="23.343" x2="13.0719" y2="22.031" gradientUnits="userSpaceOnUse">
<stop stop-color="#FF571D"/>
<stop offset="1" stop-color="#FE6C39"/>
</linearGradient>
</defs>
</svg>
