<svg width="114" height="36" viewBox="0 0 114 36" fill="none" xmlns="http://www.w3.org/2000/svg">
<circle cx="17.8121" cy="17.8136" r="15.9581" fill="#C5C5C5"/>
<circle cx="17.8125" cy="17.8125" r="17.4135" stroke="#C5C5C5" stroke-width="0.798"/>
<path d="M10.3756 16.4039L17.8078 9.32049L25.1973 16.4039L25.1973 21.0306L19.5427 15.7283L19.5427 26.3125L15.9873 26.3125L15.9873 15.7283L10.3756 21.0306L10.3756 16.4039Z" fill="#313336"/>
<path d="M44.4771 19.9062V10.9854H41.291V9.16894H49.8237V10.9854H46.645V19.9062H44.4771ZM54.6064 17.4307L56.6572 17.7749C56.3936 18.5269 55.9761 19.1006 55.4048 19.4961C54.8384 19.8867 54.1279 20.082 53.2734 20.082C51.9209 20.082 50.9199 19.6401 50.2705 18.7563C49.7578 18.0483 49.5015 17.1548 49.5015 16.0757C49.5015 14.7866 49.8384 13.7783 50.5122 13.0508C51.186 12.3184 52.0381 11.9521 53.0684 11.9521C54.2256 11.9521 55.1387 12.3354 55.8076 13.1021C56.4766 13.8638 56.7964 15.0332 56.7671 16.6104H51.6108C51.6255 17.2207 51.7915 17.6968 52.1089 18.0386C52.4263 18.3755 52.8218 18.5439 53.2954 18.5439C53.6177 18.5439 53.8887 18.4561 54.1084 18.2803C54.3281 18.1045 54.4941 17.8213 54.6064 17.4307ZM54.7236 15.3506C54.709 14.7549 54.5552 14.3032 54.2622 13.9956C53.9692 13.6831 53.6128 13.5269 53.1929 13.5269C52.7437 13.5269 52.3726 13.6904 52.0796 14.0176C51.7866 14.3447 51.6426 14.7891 51.6475 15.3506H54.7236ZM58.4517 11.0732V9.16894H60.5098V11.0732H58.4517ZM58.4517 19.9062V12.1279H60.5098V19.9062H58.4517ZM64.0767 19.9062L61.6157 12.1279H63.6152L65.0728 17.2256L66.4131 12.1279H68.398L69.6943 17.2256L71.1812 12.1279H73.21L70.7124 19.9062H68.7349L67.3945 14.9038L66.0762 19.9062H64.0767ZM75.8394 14.501L73.9717 14.1641C74.1816 13.4121 74.543 12.8555 75.0557 12.4941C75.5684 12.1328 76.3301 11.9521 77.3408 11.9521C78.2588 11.9521 78.9424 12.062 79.3916 12.2817C79.8408 12.4966 80.1558 12.7725 80.3364 13.1094C80.522 13.4414 80.6148 14.0542 80.6148 14.9478L80.5928 17.3501C80.5928 18.0337 80.6245 18.5391 80.688 18.8662C80.7564 19.1885 80.8809 19.5352 81.0615 19.9062H79.0254C78.9717 19.7695 78.9058 19.5669 78.8276 19.2983C78.7935 19.1763 78.769 19.0957 78.7544 19.0566C78.4028 19.3984 78.0269 19.6548 77.6265 19.8257C77.2261 19.9966 76.7988 20.082 76.3447 20.082C75.5439 20.082 74.9116 19.8647 74.4478 19.4302C73.9888 18.9956 73.7593 18.4463 73.7593 17.7822C73.7593 17.3428 73.8643 16.9521 74.0742 16.6104C74.2842 16.2637 74.5772 16 74.9531 15.8193C75.334 15.6338 75.8809 15.4727 76.5938 15.3359C77.5557 15.1553 78.2222 14.9868 78.5933 14.8306V14.6255C78.5933 14.23 78.4956 13.9492 78.3003 13.7832C78.105 13.6123 77.7363 13.5269 77.1943 13.5269C76.8281 13.5269 76.5425 13.6001 76.3374 13.7466C76.1323 13.8882 75.9663 14.1396 75.8394 14.501ZM78.5933 16.1709C78.3296 16.2588 77.9121 16.3638 77.3408 16.4858C76.7695 16.6079 76.396 16.7275 76.2202 16.8447C75.9517 17.0352 75.8174 17.2769 75.8174 17.5698C75.8174 17.8579 75.9248 18.1069 76.1397 18.3169C76.3545 18.5269 76.6279 18.6318 76.96 18.6318C77.3311 18.6318 77.6851 18.5098 78.022 18.2656C78.271 18.0801 78.4346 17.853 78.5127 17.5845C78.5664 17.4087 78.5933 17.0742 78.5933 16.5811V16.1709ZM81.8232 19.9062V18.3022L84.7383 14.9551C85.2168 14.4082 85.5708 14.02 85.8003 13.7905C85.561 13.8052 85.2461 13.8149 84.8555 13.8198L82.1089 13.8345V12.1279H88.5396V13.5854L85.5659 17.0132L84.5186 18.1484C85.0898 18.1143 85.4439 18.0972 85.5806 18.0972H88.7666V19.9062H81.8232Z" fill="#C5C5C5"/>
<path d="M44.131 22.5821H46.7997V25.9375H46.1222V23.1451H44.8084V25.9375H44.131V22.5821ZM47.468 23.5068H48.0677V23.8638C48.1455 23.7418 48.2508 23.6426 48.3836 23.5663C48.5163 23.49 48.6636 23.4518 48.8253 23.4518C49.1076 23.4518 49.3472 23.5625 49.544 23.7837C49.7408 24.005 49.8393 24.3132 49.8393 24.7084C49.8393 25.1143 49.7401 25.4301 49.5417 25.656C49.3434 25.8803 49.103 25.9924 48.8207 25.9924C48.6865 25.9924 48.5644 25.9657 48.4545 25.9123C48.3462 25.8589 48.2318 25.7674 48.1112 25.6377V26.8622H47.468V23.5068ZM48.1043 24.6809C48.1043 24.9541 48.1585 25.1562 48.2668 25.2875C48.3752 25.4172 48.5072 25.482 48.6628 25.482C48.8123 25.482 48.9367 25.4225 49.0359 25.3035C49.1351 25.183 49.1847 24.9861 49.1847 24.713C49.1847 24.4582 49.1335 24.269 49.0313 24.1454C48.9291 24.0218 48.8024 23.96 48.6514 23.96C48.4942 23.96 48.3637 24.021 48.26 24.1431C48.1562 24.2636 48.1043 24.4429 48.1043 24.6809ZM50.8326 24.2484L50.249 24.1431C50.3146 23.9081 50.4275 23.7341 50.5877 23.6212C50.7479 23.5083 50.986 23.4518 51.3018 23.4518C51.5887 23.4518 51.8023 23.4862 51.9427 23.5548C52.0831 23.622 52.1815 23.7082 52.2379 23.8135C52.2959 23.9172 52.3249 24.1087 52.3249 24.388L52.3181 25.1387C52.3181 25.3523 52.328 25.5103 52.3478 25.6125C52.3692 25.7132 52.4081 25.8215 52.4645 25.9375H51.8282C51.8115 25.8948 51.7909 25.8315 51.7664 25.7475C51.7558 25.7094 51.7481 25.6842 51.7436 25.672C51.6337 25.7788 51.5162 25.8589 51.3911 25.9123C51.266 25.9657 51.1324 25.9924 50.9905 25.9924C50.7403 25.9924 50.5427 25.9245 50.3977 25.7887C50.2543 25.6529 50.1826 25.4813 50.1826 25.2737C50.1826 25.1364 50.2154 25.0143 50.281 24.9075C50.3466 24.7992 50.4382 24.7168 50.5557 24.6603C50.6747 24.6024 50.8456 24.552 51.0684 24.5093C51.369 24.4528 51.5772 24.4002 51.6932 24.3513V24.2873C51.6932 24.1637 51.6627 24.0759 51.6017 24.024C51.5406 23.9706 51.4254 23.9439 51.256 23.9439C51.1416 23.9439 51.0523 23.9668 50.9883 24.0126C50.9242 24.0569 50.8723 24.1354 50.8326 24.2484ZM51.6932 24.7702C51.6108 24.7977 51.4803 24.8305 51.3018 24.8686C51.1233 24.9068 51.0066 24.9442 50.9516 24.9808C50.8677 25.0403 50.8257 25.1158 50.8257 25.2074C50.8257 25.2974 50.8593 25.3752 50.9265 25.4408C50.9936 25.5064 51.079 25.5392 51.1828 25.5392C51.2988 25.5392 51.4094 25.5011 51.5147 25.4248C51.5925 25.3668 51.6436 25.2959 51.668 25.2119C51.6848 25.157 51.6932 25.0525 51.6932 24.8984V24.7702ZM52.9681 23.5068H54.3757C54.6641 23.5068 54.88 23.5594 55.0234 23.6647C55.1669 23.77 55.2386 23.9287 55.2386 24.1408C55.2386 24.2766 55.1989 24.3948 55.1196 24.4955C55.0417 24.5963 54.9433 24.6634 54.8243 24.697C54.9922 24.7382 55.1173 24.8152 55.1997 24.9281C55.2821 25.041 55.3233 25.1646 55.3233 25.2989C55.3233 25.4881 55.2538 25.6422 55.115 25.7613C54.9761 25.8788 54.7709 25.9375 54.4993 25.9375H52.9681V23.5068ZM53.6158 24.5161H54.0301C54.23 24.5161 54.3742 24.491 54.4627 24.4406C54.5527 24.3903 54.5977 24.3109 54.5977 24.2026C54.5977 24.1003 54.5558 24.0279 54.4718 23.9851C54.3894 23.9409 54.2422 23.9188 54.0301 23.9188H53.6158V24.5161ZM53.6158 25.5255H54.1239C54.307 25.5255 54.4406 25.5034 54.5245 25.4591C54.6084 25.4149 54.6504 25.3355 54.6504 25.2211C54.6504 25.1021 54.6023 25.0204 54.5062 24.9762C54.41 24.9304 54.2231 24.9075 53.9454 24.9075H53.6158V25.5255ZM55.8291 23.5068H56.4471V25.0334L57.4359 23.5068H58.0676V25.9375H57.4496V24.3834L56.4471 25.9375H55.8291V23.5068ZM58.903 23.5068H61.0568V25.9375H60.4159V24.0286H59.5393V25.1204C59.5393 25.3981 59.5072 25.5934 59.4431 25.7063C59.3791 25.8177 59.3081 25.891 59.2303 25.9261C59.1525 25.9612 59.0273 25.9787 58.8549 25.9787C58.7527 25.9787 58.6176 25.965 58.4498 25.9375V25.4637C58.4635 25.4637 58.4994 25.4652 58.5574 25.4683C58.6245 25.4729 58.6764 25.4752 58.713 25.4752C58.8 25.4752 58.8534 25.4469 58.8732 25.3905C58.8931 25.3325 58.903 25.173 58.903 24.9121V23.5068ZM61.7228 23.5068H62.366V24.5161H63.0114C63.2647 24.5161 63.4593 24.5345 63.5951 24.5711C63.7309 24.6077 63.8438 24.687 63.9338 24.8091C64.0238 24.9297 64.0688 25.07 64.0688 25.2303C64.0688 25.4652 63.988 25.6422 63.8262 25.7613C63.666 25.8788 63.4249 25.9375 63.103 25.9375H61.7228V23.5068ZM62.366 25.5301H62.9656C63.1533 25.5301 63.2731 25.4996 63.325 25.4385C63.3784 25.3775 63.4051 25.305 63.4051 25.2211C63.4051 25.1036 63.3593 25.0227 63.2678 24.9785C63.1777 24.9342 63.0168 24.9121 62.7848 24.9121H62.366V25.5301ZM64.5678 23.5068H65.211V24.3971H66.1311V23.5068H66.7765V25.9375H66.1311V24.9167H65.211V25.9375H64.5678V23.5068ZM67.2778 24.6878C67.2778 24.4742 67.3304 24.2674 67.4357 24.0675C67.541 23.8676 67.6898 23.7151 67.882 23.6098C68.0758 23.5045 68.2917 23.4518 68.5298 23.4518C68.8975 23.4518 69.1989 23.5716 69.4338 23.8112C69.6688 24.0492 69.7863 24.3506 69.7863 24.7153C69.7863 25.083 69.6673 25.3882 69.4293 25.6308C69.1928 25.8719 68.8944 25.9924 68.5343 25.9924C68.3116 25.9924 68.0987 25.9421 67.8958 25.8414C67.6943 25.7407 67.541 25.5934 67.4357 25.3996C67.3304 25.2043 67.2778 24.967 67.2778 24.6878ZM67.937 24.7221C67.937 24.9632 67.9942 25.1479 68.1086 25.276C68.2231 25.4042 68.3642 25.4683 68.532 25.4683C68.6999 25.4683 68.8403 25.4042 68.9532 25.276C69.0676 25.1479 69.1248 24.9617 69.1248 24.7176C69.1248 24.4795 69.0676 24.2964 68.9532 24.1682C68.8403 24.0401 68.6999 23.976 68.532 23.976C68.3642 23.976 68.2231 24.0401 68.1086 24.1682C67.9942 24.2964 67.937 24.481 67.937 24.7221ZM71.6998 25.1639L72.3406 25.2715C72.2582 25.5064 72.1278 25.6857 71.9493 25.8093C71.7722 25.9314 71.5502 25.9924 71.2832 25.9924C70.8605 25.9924 70.5477 25.8543 70.3448 25.5782C70.1846 25.3569 70.1045 25.0777 70.1045 24.7404C70.1045 24.3376 70.2097 24.0225 70.4203 23.7952C70.6309 23.5663 70.8972 23.4518 71.2191 23.4518C71.5808 23.4518 71.8661 23.5716 72.0751 23.8112C72.2842 24.0492 72.3841 24.4147 72.375 24.9075H70.7636C70.7682 25.0983 70.8201 25.247 70.9193 25.3539C71.0185 25.4591 71.1421 25.5118 71.2901 25.5118C71.3908 25.5118 71.4755 25.4843 71.5441 25.4294C71.6128 25.3745 71.6647 25.2859 71.6998 25.1639ZM71.7364 24.5139C71.7318 24.3277 71.6837 24.1866 71.5922 24.0904C71.5006 23.9928 71.3893 23.9439 71.258 23.9439C71.1176 23.9439 71.0017 23.9951 70.9101 24.0973C70.8186 24.1995 70.7736 24.3384 70.7751 24.5139H71.7364ZM74.1808 23.5068H74.824V24.3971H75.7441V23.5068H76.3896V25.9375H75.7441V24.9167H74.824V25.9375H74.1808V23.5068ZM77.5202 24.2484L76.9366 24.1431C77.0022 23.9081 77.1151 23.7341 77.2753 23.6212C77.4356 23.5083 77.6736 23.4518 77.9894 23.4518C78.2763 23.4518 78.4899 23.4862 78.6303 23.5548C78.7707 23.622 78.8691 23.7082 78.9256 23.8135C78.9836 23.9172 79.0125 24.1087 79.0125 24.388L79.0057 25.1387C79.0057 25.3523 79.0156 25.5103 79.0354 25.6125C79.0568 25.7132 79.0957 25.8215 79.1522 25.9375H78.5159C78.4991 25.8948 78.4785 25.8315 78.4541 25.7475C78.4434 25.7094 78.4358 25.6842 78.4312 25.672C78.3213 25.7788 78.2038 25.8589 78.0787 25.9123C77.9536 25.9657 77.8201 25.9924 77.6782 25.9924C77.4279 25.9924 77.2303 25.9245 77.0854 25.7887C76.9419 25.6529 76.8702 25.4813 76.8702 25.2737C76.8702 25.1364 76.903 25.0143 76.9686 24.9075C77.0342 24.7992 77.1258 24.7168 77.2433 24.6603C77.3623 24.6024 77.5332 24.552 77.756 24.5093C78.0566 24.4528 78.2649 24.4002 78.3808 24.3513V24.2873C78.3808 24.1637 78.3503 24.0759 78.2893 24.024C78.2282 23.9706 78.113 23.9439 77.9437 23.9439C77.8292 23.9439 77.74 23.9668 77.6759 24.0126C77.6118 24.0569 77.5599 24.1354 77.5202 24.2484ZM78.3808 24.7702C78.2984 24.7977 78.168 24.8305 77.9894 24.8686C77.8109 24.9068 77.6942 24.9442 77.6393 24.9808C77.5553 25.0403 77.5134 25.1158 77.5134 25.2074C77.5134 25.2974 77.5469 25.3752 77.6141 25.4408C77.6812 25.5064 77.7667 25.5392 77.8704 25.5392C77.9864 25.5392 78.097 25.5011 78.2023 25.4248C78.2801 25.3668 78.3312 25.2959 78.3557 25.2119C78.3724 25.157 78.3808 25.0525 78.3808 24.8984V24.7702ZM79.6237 23.5068H81.782V25.9375H81.1389V24.0263H80.2668V25.9375H79.6237V23.5068ZM82.4641 23.5068H83.0638V23.8638C83.1416 23.7418 83.2469 23.6426 83.3796 23.5663C83.5124 23.49 83.6596 23.4518 83.8214 23.4518C84.1036 23.4518 84.3432 23.5625 84.54 23.7837C84.7369 24.005 84.8353 24.3132 84.8353 24.7084C84.8353 25.1143 84.7361 25.4301 84.5378 25.656C84.3394 25.8803 84.0991 25.9924 83.8168 25.9924C83.6825 25.9924 83.5604 25.9657 83.4506 25.9123C83.3422 25.8589 83.2278 25.7674 83.1072 25.6377V26.8622H82.4641V23.5068ZM83.1004 24.6809C83.1004 24.9541 83.1545 25.1562 83.2629 25.2875C83.3712 25.4172 83.5032 25.482 83.6588 25.482C83.8084 25.482 83.9327 25.4225 84.0319 25.3035C84.1311 25.183 84.1807 24.9861 84.1807 24.713C84.1807 24.4582 84.1296 24.269 84.0273 24.1454C83.9251 24.0218 83.7985 23.96 83.6474 23.96C83.4902 23.96 83.3598 24.021 83.256 24.1431C83.1523 24.2636 83.1004 24.4429 83.1004 24.6809ZM85.8286 24.2484L85.245 24.1431C85.3106 23.9081 85.4235 23.7341 85.5837 23.6212C85.744 23.5083 85.982 23.4518 86.2979 23.4518C86.5847 23.4518 86.7983 23.4862 86.9387 23.5548C87.0791 23.622 87.1775 23.7082 87.234 23.8135C87.292 23.9172 87.321 24.1087 87.321 24.388L87.3141 25.1387C87.3141 25.3523 87.324 25.5103 87.3438 25.6125C87.3652 25.7132 87.4041 25.8215 87.4606 25.9375H86.8243C86.8075 25.8948 86.7869 25.8315 86.7625 25.7475C86.7518 25.7094 86.7442 25.6842 86.7396 25.672C86.6297 25.7788 86.5122 25.8589 86.3871 25.9123C86.262 25.9657 86.1285 25.9924 85.9866 25.9924C85.7363 25.9924 85.5387 25.9245 85.3938 25.7887C85.2503 25.6529 85.1786 25.4813 85.1786 25.2737C85.1786 25.1364 85.2114 25.0143 85.277 24.9075C85.3427 24.7992 85.4342 24.7168 85.5517 24.6603C85.6707 24.6024 85.8416 24.552 86.0644 24.5093C86.365 24.4528 86.5733 24.4002 86.6892 24.3513V24.2873C86.6892 24.1637 86.6587 24.0759 86.5977 24.024C86.5367 23.9706 86.4215 23.9439 86.2521 23.9439C86.1376 23.9439 86.0484 23.9668 85.9843 24.0126C85.9202 24.0569 85.8683 24.1354 85.8286 24.2484ZM86.6892 24.7702C86.6068 24.7977 86.4764 24.8305 86.2979 24.8686C86.1193 24.9068 86.0026 24.9442 85.9477 24.9808C85.8637 25.0403 85.8218 25.1158 85.8218 25.2074C85.8218 25.2974 85.8554 25.3752 85.9225 25.4408C85.9896 25.5064 86.0751 25.5392 86.1788 25.5392C86.2948 25.5392 86.4054 25.5011 86.5107 25.4248C86.5885 25.3668 86.6397 25.2959 86.6641 25.2119C86.6809 25.157 86.6892 25.0525 86.6892 24.8984V24.7702ZM87.9641 23.5068H89.3717C89.6601 23.5068 89.876 23.5594 90.0195 23.6647C90.1629 23.77 90.2346 23.9287 90.2346 24.1408C90.2346 24.2766 90.195 24.3948 90.1156 24.4955C90.0378 24.5963 89.9394 24.6634 89.8203 24.697C89.9882 24.7382 90.1133 24.8152 90.1957 24.9281C90.2781 25.041 90.3193 25.1646 90.3193 25.2989C90.3193 25.4881 90.2499 25.6422 90.111 25.7613C89.9722 25.8788 89.7669 25.9375 89.4953 25.9375H87.9641V23.5068ZM88.6119 24.5161H89.0261C89.226 24.5161 89.3702 24.491 89.4587 24.4406C89.5487 24.3903 89.5938 24.3109 89.5938 24.2026C89.5938 24.1003 89.5518 24.0279 89.4679 23.9851C89.3855 23.9409 89.2382 23.9188 89.0261 23.9188H88.6119V24.5161ZM88.6119 25.5255H89.12C89.3031 25.5255 89.4366 25.5034 89.5205 25.4591C89.6044 25.4149 89.6464 25.3355 89.6464 25.2211C89.6464 25.1021 89.5983 25.0204 89.5022 24.9762C89.4061 24.9304 89.2192 24.9075 88.9414 24.9075H88.6119V25.5255ZM90.951 23.5068H93.1048V25.9375H92.4639V24.0286H91.5873V25.1204C91.5873 25.3981 91.5553 25.5934 91.4912 25.7063C91.4271 25.8177 91.3561 25.891 91.2783 25.9261C91.2005 25.9612 91.0754 25.9787 90.903 25.9787C90.8007 25.9787 90.6657 25.965 90.4978 25.9375V25.4637C90.5116 25.4637 90.5474 25.4652 90.6054 25.4683C90.6726 25.4729 90.7244 25.4752 90.7611 25.4752C90.848 25.4752 90.9014 25.4469 90.9213 25.3905C90.9411 25.3325 90.951 25.173 90.951 24.9121V23.5068ZM95.1007 25.1639L95.7415 25.2715C95.6591 25.5064 95.5287 25.6857 95.3501 25.8093C95.1731 25.9314 94.9511 25.9924 94.6841 25.9924C94.2614 25.9924 93.9486 25.8543 93.7457 25.5782C93.5855 25.3569 93.5053 25.0777 93.5053 24.7404C93.5053 24.3376 93.6106 24.0225 93.8212 23.7952C94.0318 23.5663 94.298 23.4518 94.62 23.4518C94.9816 23.4518 95.267 23.5716 95.476 23.8112C95.6851 24.0492 95.785 24.4147 95.7759 24.9075H94.1645C94.1691 25.0983 94.221 25.247 94.3202 25.3539C94.4193 25.4591 94.5429 25.5118 94.691 25.5118C94.7917 25.5118 94.8763 25.4843 94.945 25.4294C95.0137 25.3745 95.0656 25.2859 95.1007 25.1639ZM95.1373 24.5139C95.1327 24.3277 95.0846 24.1866 94.9931 24.0904C94.9015 23.9928 94.7901 23.9439 94.6589 23.9439C94.5185 23.9439 94.4026 23.9951 94.311 24.0973C94.2195 24.1995 94.1744 24.3384 94.176 24.5139H95.1373ZM96.2771 23.5068H96.9203V24.3971H97.8404V23.5068H98.4858V25.9375H97.8404V24.9167H96.9203V25.9375H96.2771V23.5068ZM99.1198 23.5068H99.7378V25.0334L100.727 23.5068H101.358V25.9375H100.74V24.3834L99.7378 25.9375H99.1198V23.5068ZM103.427 25.1639L104.068 25.2715C103.986 25.5064 103.855 25.6857 103.677 25.8093C103.5 25.9314 103.278 25.9924 103.011 25.9924C102.588 25.9924 102.275 25.8543 102.072 25.5782C101.912 25.3569 101.832 25.0777 101.832 24.7404C101.832 24.3376 101.937 24.0225 102.148 23.7952C102.358 23.5663 102.625 23.4518 102.947 23.4518C103.308 23.4518 103.594 23.5716 103.803 23.8112C104.012 24.0492 104.112 24.4147 104.103 24.9075H102.491C102.496 25.0983 102.548 25.247 102.647 25.3539C102.746 25.4591 102.87 25.5118 103.018 25.5118C103.118 25.5118 103.203 25.4843 103.272 25.4294C103.34 25.3745 103.392 25.2859 103.427 25.1639ZM103.464 24.5139C103.459 24.3277 103.411 24.1866 103.32 24.0904C103.228 23.9928 103.117 23.9439 102.986 23.9439C102.845 23.9439 102.729 23.9951 102.638 24.0973C102.546 24.1995 102.501 24.3384 102.503 24.5139H103.464ZM105.94 23.5068H107.348C107.637 23.5068 107.852 23.5594 107.996 23.6647C108.139 23.77 108.211 23.9287 108.211 24.1408C108.211 24.2766 108.171 24.3948 108.092 24.4955C108.014 24.5963 107.916 24.6634 107.797 24.697C107.965 24.7382 108.09 24.8152 108.172 24.9281C108.254 25.041 108.296 25.1646 108.296 25.2989C108.296 25.4881 108.226 25.6422 108.087 25.7613C107.949 25.8788 107.743 25.9375 107.472 25.9375H105.94V23.5068ZM106.588 24.5161H107.003C107.202 24.5161 107.347 24.491 107.435 24.4406C107.525 24.3903 107.57 24.3109 107.57 24.2026C107.57 24.1003 107.528 24.0279 107.444 23.9851C107.362 23.9409 107.215 23.9188 107.003 23.9188H106.588V24.5161ZM106.588 25.5255H107.096C107.279 25.5255 107.413 25.5034 107.497 25.4591C107.581 25.4149 107.623 25.3355 107.623 25.2211C107.623 25.1021 107.575 25.0204 107.479 24.9762C107.382 24.9304 107.196 24.9075 106.918 24.9075H106.588V25.5255ZM110.106 25.9375V22.5821H110.784V25.9375H110.106ZM112.187 25.9375V23.1497H111.191V22.5821H113.858V23.1497H112.864V25.9375H112.187Z" fill="#C5C5C5"/>
</svg>
