<svg width="39" height="41" viewBox="0 0 39 41" fill="none" xmlns="http://www.w3.org/2000/svg">
<path d="M14.0903 22.3686C14.0903 21.8607 13.6851 21.4492 13.185 21.4492H10.0259C9.52643 21.4492 9.12109 21.8607 9.12109 22.3686V25.5794C9.12109 26.088 9.52643 26.4996 10.0259 26.4996H13.185C13.6851 26.4996 14.0903 26.088 14.0903 25.5794V22.3686Z" fill="#FF4200"/>
<path d="M21.9844 22.3686C21.9844 21.8607 21.579 21.4492 21.08 21.4492H17.9204C17.421 21.4492 17.0156 21.8607 17.0156 22.3686V25.5794C17.0156 26.088 17.421 26.4996 17.9204 26.4996H21.08C21.579 26.4996 21.9844 26.088 21.9844 25.5794V22.3686Z" fill="#FF4200"/>
<path d="M29.8793 22.3686C29.8793 21.8607 29.4739 21.4492 28.9745 21.4492H25.8154C25.3154 21.4492 24.9102 21.8607 24.9102 22.3686V25.5794C24.9102 26.088 25.3154 26.4996 25.8154 26.4996H28.9745C29.4739 26.4996 29.8793 26.088 29.8793 25.5794V22.3686Z" fill="#FF4200"/>
<path d="M14.0903 30.3925C14.0903 29.8838 13.6851 29.4727 13.185 29.4727H10.0259C9.52643 29.4727 9.12109 29.8838 9.12109 30.3925V33.6028C9.12109 34.111 9.52643 34.5225 10.0259 34.5225H13.185C13.6851 34.5225 14.0903 34.1109 14.0903 33.6028V30.3925Z" fill="#FF4200"/>
<path d="M21.9844 30.3925C21.9844 29.8838 21.579 29.4727 21.08 29.4727H17.9204C17.421 29.4727 17.0156 29.8838 17.0156 30.3925V33.6028C17.0156 34.111 17.421 34.5225 17.9204 34.5225H21.08C21.579 34.5225 21.9844 34.1109 21.9844 33.6028V30.3925Z" fill="#FF4200"/>
<path d="M29.8793 30.3925C29.8793 29.8838 29.4739 29.4727 28.9749 29.4727H25.8154C25.3154 29.4727 24.9102 29.8838 24.9102 30.3925V33.6028C24.9102 34.111 25.3154 34.5225 25.8154 34.5225H28.9749C29.4739 34.5225 29.8793 34.1109 29.8793 33.6028V30.3925Z" fill="#FF4200"/>
<path d="M35.5286 4.5137V9.41807C35.5286 11.6348 33.7596 13.4211 31.5792 13.4211H29.0878C26.9072 13.4211 25.1147 11.6348 25.1147 9.41807V4.49609H13.8853V9.41807C13.8853 11.6348 12.0928 13.4211 9.91263 13.4211H7.42073C5.24044 13.4211 3.47146 11.6348 3.47146 9.41807V4.5137C1.56587 4.57209 0 6.17496 0 8.14509V36.887C0 38.8942 1.60043 40.5426 3.57498 40.5426H35.425C37.3966 40.5426 39 38.8908 39 36.887V8.14509C39 6.17496 37.4342 4.57209 35.5286 4.5137ZM34.3714 35.0972C34.3714 35.9646 33.6796 36.6683 32.8259 36.6683H6.10602C5.25237 36.6683 4.5605 35.9646 4.5605 35.0972V20.2509C4.5605 19.3832 5.25229 18.6795 6.10602 18.6795H32.8258C33.6795 18.6795 34.3714 19.3832 34.3714 20.2509L34.3714 35.0972Z" fill="#FF4200"/>
<path d="M7.41113 10.7925H9.87549C10.6235 10.7925 11.23 10.1769 11.23 9.41657V1.37647C11.23 0.616017 10.6235 0 9.87549 0H7.41113C6.66305 0 6.05664 0.616017 6.05664 1.37647V9.41657C6.05664 10.1769 6.66305 10.7925 7.41113 10.7925Z" fill="#FF4200"/>
<path d="M29.0556 10.7925H31.52C32.2675 10.7925 32.874 10.1769 32.874 9.41657V1.37647C32.8741 0.616017 32.2676 0 31.52 0H29.0556C28.3077 0 27.7012 0.616017 27.7012 1.37647V9.41657C27.7012 10.1769 28.3077 10.7925 29.0556 10.7925Z" fill="#FF4200"/>
</svg>
