<svg width="178" height="177" viewBox="0 0 178 177" fill="none" xmlns="http://www.w3.org/2000/svg">
<path d="M3.00043 88.9318C3.00043 136.39 41.4732 174.863 88.9319 174.863C136.39 174.863 174.863 136.39 174.863 88.9319C174.863 41.4732 136.39 3.00042 88.9319 3.00042" stroke="#FF4200" stroke-width="2"/>
<g filter="url(#filter0_d)">
<circle cx="88.9313" cy="88.5358" r="58.3678" fill="white"/>
</g>
<path d="M58.5953 79.232V98.832H55.8233V81.668H51.3993V79.232H58.5953ZM72.2906 99.056C70.7413 99.056 69.3599 98.664 68.1466 97.88C66.9519 97.0774 66.0093 95.92 65.3186 94.408C64.6279 92.896 64.2826 91.104 64.2826 89.032C64.2826 86.96 64.6279 85.168 65.3186 83.656C66.0093 82.144 66.9519 80.996 68.1466 80.212C69.3599 79.4094 70.7413 79.008 72.2906 79.008C73.8213 79.008 75.1839 79.4094 76.3786 80.212C77.5919 80.996 78.5439 82.144 79.2346 83.656C79.9253 85.168 80.2706 86.96 80.2706 89.032C80.2706 91.104 79.9253 92.896 79.2346 94.408C78.5439 95.92 77.5919 97.0774 76.3786 97.88C75.1839 98.664 73.8213 99.056 72.2906 99.056ZM72.2906 96.564C73.8586 96.564 75.1093 95.92 76.0426 94.632C76.9946 93.344 77.4706 91.4774 77.4706 89.032C77.4706 86.5867 76.9946 84.72 76.0426 83.432C75.1093 82.144 73.8586 81.5 72.2906 81.5C70.7039 81.5 69.4346 82.144 68.4826 83.432C67.5493 84.72 67.0826 86.5867 67.0826 89.032C67.0826 91.4774 67.5493 93.344 68.4826 94.632C69.4346 95.92 70.7039 96.564 72.2906 96.564ZM92.3664 99.056C90.8171 99.056 89.4357 98.664 88.2224 97.88C87.0277 97.0774 86.0851 95.92 85.3944 94.408C84.7037 92.896 84.3584 91.104 84.3584 89.032C84.3584 86.96 84.7037 85.168 85.3944 83.656C86.0851 82.144 87.0277 80.996 88.2224 80.212C89.4357 79.4094 90.8171 79.008 92.3664 79.008C93.8971 79.008 95.2597 79.4094 96.4544 80.212C97.6677 80.996 98.6197 82.144 99.3104 83.656C100.001 85.168 100.346 86.96 100.346 89.032C100.346 91.104 100.001 92.896 99.3104 94.408C98.6197 95.92 97.6677 97.0774 96.4544 97.88C95.2597 98.664 93.8971 99.056 92.3664 99.056ZM92.3664 96.564C93.9344 96.564 95.1851 95.92 96.1184 94.632C97.0704 93.344 97.5464 91.4774 97.5464 89.032C97.5464 86.5867 97.0704 84.72 96.1184 83.432C95.1851 82.144 93.9344 81.5 92.3664 81.5C90.7797 81.5 89.5104 82.144 88.5584 83.432C87.6251 84.72 87.1584 86.5867 87.1584 89.032C87.1584 91.4774 87.6251 93.344 88.5584 94.632C89.5104 95.92 90.7797 96.564 92.3664 96.564ZM108.69 89.76C107.328 89.76 106.226 89.2654 105.386 88.276C104.546 87.2867 104.126 85.9987 104.126 84.412C104.126 82.8254 104.546 81.5374 105.386 80.548C106.226 79.5587 107.328 79.064 108.69 79.064C110.053 79.064 111.145 79.5587 111.966 80.548C112.806 81.5187 113.226 82.8067 113.226 84.412C113.226 86.0174 112.806 87.3147 111.966 88.304C111.145 89.2747 110.053 89.76 108.69 89.76ZM120.506 79.232H122.662L109.278 98.832H107.122L120.506 79.232ZM108.69 88.164C109.549 88.164 110.221 87.8374 110.706 87.184C111.192 86.512 111.434 85.588 111.434 84.412C111.434 83.236 111.192 82.3214 110.706 81.668C110.221 80.996 109.549 80.66 108.69 80.66C107.85 80.66 107.178 80.996 106.674 81.668C106.189 82.34 105.946 83.2547 105.946 84.412C105.946 85.5694 106.189 86.484 106.674 87.156C107.178 87.828 107.85 88.164 108.69 88.164ZM121.094 99C119.732 99 118.63 98.5147 117.79 97.544C116.969 96.5547 116.558 95.2574 116.558 93.652C116.558 92.0467 116.969 90.7587 117.79 89.788C118.63 88.7987 119.732 88.304 121.094 88.304C122.457 88.304 123.558 88.7987 124.398 89.788C125.238 90.7774 125.658 92.0654 125.658 93.652C125.658 95.2387 125.238 96.5267 124.398 97.516C123.558 98.5054 122.457 99 121.094 99ZM121.094 97.404C121.934 97.404 122.597 97.068 123.082 96.396C123.586 95.724 123.838 94.8094 123.838 93.652C123.838 92.4947 123.586 91.58 123.082 90.908C122.597 90.236 121.934 89.9 121.094 89.9C120.236 89.9 119.564 90.236 119.078 90.908C118.593 91.5614 118.35 92.476 118.35 93.652C118.35 94.828 118.593 95.752 119.078 96.424C119.564 97.0774 120.236 97.404 121.094 97.404Z" fill="#FF4200"/>
<defs>
<filter id="filter0_d" x="0.563477" y="0.167969" width="176.736" height="176.736" filterUnits="userSpaceOnUse" color-interpolation-filters="sRGB">
<feFlood flood-opacity="0" result="BackgroundImageFix"/>
<feColorMatrix in="SourceAlpha" type="matrix" values="0 0 0 0 0 0 0 0 0 0 0 0 0 0 0 0 0 0 127 0"/>
<feOffset/>
<feGaussianBlur stdDeviation="15"/>
<feColorMatrix type="matrix" values="0 0 0 0 1 0 0 0 0 0.258824 0 0 0 0 0 0 0 0 0.4 0"/>
<feBlend mode="normal" in2="BackgroundImageFix" result="effect1_dropShadow"/>
<feBlend mode="normal" in="SourceGraphic" in2="effect1_dropShadow" result="shape"/>
</filter>
</defs>
</svg>
